<?xml version="1.0" encoding="utf-8"?>
<!-- Generator: Adobe Illustrator 18.0.0, SVG Export Plug-In . SVG Version: 6.00 Build 0)  -->
<!DOCTYPE svg PUBLIC "-//W3C//DTD SVG 1.1//EN" "http://www.w3.org/Graphics/SVG/1.1/DTD/svg11.dtd">
<svg version="1.1" id="图层_1" xmlns="http://www.w3.org/2000/svg" xmlns:xlink="http://www.w3.org/1999/xlink" x="0px" y="0px"
	 viewBox="0 0 240.2 61.8" enable-background="new 0 0 240.2 61.8" xml:space="preserve">
<path fill="#333333" d="M42.1,15.2H20.3c-1,0-2-0.1-3-0.2l1.6,2.8c0.6-0.4,1.4-0.7,2.2-0.7h29.5c1.2,0,1.7-0.3,1.7-0.8
	c0-0.3-0.2-0.6-0.6-1c-0.4-0.4-1.2-1.1-2.3-2c-1.2-0.9-2.2-1.7-3-2.3H56c1,0,1.4-0.2,1.4-0.6c0-0.4-0.4-0.9-1-1.4
	c-0.7-0.5-1.9-1.4-3.7-2.7c-1.8-1.3-2.9-1.9-3.3-1.9c-0.2,0-0.5,0.1-0.7,0.4c-0.2,0.3-1.1,1.7-2.6,4.2H20.2c1.2-1.8,2.1-2.8,2.7-3.1
	c0.6-0.2,0.9-0.5,0.9-0.8c0-0.3-0.2-0.5-0.5-0.7C23,4.5,21.9,4.2,20,3.8c-1.9-0.4-4.1-0.8-6.8-1.1c-0.8,4.7-2.1,9.1-4,13.2
	c-1.9,4.1-4.1,7.3-6.5,9.9c-0.4,0.4-0.6,0.7-0.6,0.9c0,0.2,0.1,0.3,0.3,0.3c0.7,0,2.8-1.4,6.2-4c3.4-2.7,6.9-6.6,10.3-11.7h26
	C44.6,11.5,43.7,12.8,42.1,15.2L42.1,15.2z M52.4,23.3c0-0.4-1.1-1.3-3.3-2.8c-2.2-1.5-3.6-2.2-4.3-2.2c-0.6,0-1.1,0.2-1.4,0.6
	c-0.3,0.4-0.8,1.3-1.6,2.6H13.2c-1,0-2-0.1-3-0.2l2.5,2.8c0.6-0.4,1.4-0.7,2.2-0.7h27.9c-0.2,3.3-0.3,6.3-0.3,8.9
	c0,9.6,1.5,16.4,4.5,20.2s5.7,5.8,8.1,5.8c0.8,0,1.5-0.3,2-0.8c0.5-0.5,0.7-1.1,0.7-1.7c0-0.6-0.1-1.2-0.2-1.7c-0.7-2-1-3.9-1-5.9
	c0-2,0.3-4.4,1-7.1c0.1-0.5,0.2-0.9,0.2-1.1c0-0.2-0.1-0.3-0.2-0.3c-0.1,0-0.3,0.4-0.6,1.2c-1.4,3.4-2.2,5.3-2.5,5.8
	c-0.3,0.5-0.7,0.8-1,0.8c-0.9,0-1.8-1.1-2.6-3.2c-0.9-2.2-1.3-5.3-1.3-9.4c0-3.3,0.3-6.8,1-10.6C51.7,24.1,52.4,23.7,52.4,23.3z
	 M36,41.4c0.8,1.3,1.7,1.9,2.5,1.9s1.6-0.3,2.2-1c0.6-0.6,1-1.5,1-2.5c0-1.6-0.8-3.1-2.5-4.4c-1.7-1.3-4.2-2-7.5-2
	c-0.7,0-1.5,0-2.2,0.1c0.7-0.4,1.6-0.9,2.8-1.7c1.2-0.8,2-1.4,2.5-1.6c0.5-0.3,1-0.5,1.5-0.5c1.1,0,1.6-0.2,1.6-0.5
	c0-0.2-0.1-0.4-0.4-0.7c-0.3-0.3-1-0.8-2.2-1.5c-1.2-0.7-2.2-1.4-3.2-1.9c-1-0.6-1.7-0.8-2.2-0.8c-0.5,0-0.8,0.1-1.1,0.4
	s-0.8,1.1-1.6,2.5H10c-1,0-2-0.1-3-0.2l1.7,2.8c0.6-0.4,1.4-0.7,2.2-0.7H26c-2.5,2.6-5.4,4.9-8.6,6.8c-3.2,1.9-7.3,3.6-12.2,5.2
	c-0.9,0.3-1.3,0.5-1.3,0.6c0,0.1,0.2,0.1,0.5,0.1c1.3,0,4.2-0.5,8.9-1.4c4.6-0.9,9.2-2.6,13.7-5.2C31.3,36.6,34.3,38.7,36,41.4
	L36,41.4z M19.8,53.9H5c-1,0-2-0.1-3-0.2l1.9,2.8c0.6-0.4,1.4-0.7,2.2-0.7H44c0.9,0,1.4-0.2,1.4-0.6c0-0.4-1-1.5-3.1-3.2
	c-2-1.7-3.3-2.6-3.8-2.6c-0.2,0-0.5,0.1-0.8,0.4c-0.3,0.3-1.2,1.6-2.7,4.1h-7.5V46c0.6-0.3,1-0.6,1.2-0.9h7c0.8,0,1.3-0.2,1.3-0.6
	c0-0.4-0.4-0.9-1.1-1.6c-0.7-0.7-1.6-1.4-2.7-2.3c-1.1-0.8-1.8-1.3-2.1-1.3c-0.3,0-0.6,0.1-0.8,0.4c-0.2,0.3-0.9,1.4-2.1,3.3H11.1
	c-1,0-2-0.1-3-0.2l1.9,2.8c0.6-0.4,1.4-0.7,2.2-0.7h7.7V53.9z M66,42.3l-4.4,0.5c0.5,1.6,1,3.4,1.7,5.2c0.6,1.8,1,2.8,1.1,3
	c0.1,0.2,0.3,0.2,0.6,0.2c0.3,0,0.6-0.2,1-0.5c1.1-0.9,5.3-3.1,12.7-6.7v12c0,0.6,0.2,0.9,0.5,0.9c0.7,0,1.8-0.2,3.2-0.5
	c1.4-0.3,2.3-0.6,2.7-0.9c0.4-0.3,0.6-0.6,0.6-0.9l-0.1-2.2c0-0.8-0.1-2.1-0.1-4.1v-7.6l4.2-2c1-0.5,1.5-0.8,1.5-1
	c0-0.1-0.1-0.1-0.4-0.1c-0.2,0-0.6,0.1-1.1,0.2l-4.2,1v-5.3h11C96,39,94.8,43.7,92.9,47.3c-1.9,3.7-5.4,7-10.3,10
	c-0.6,0.4-1,0.7-1,0.9c0,0.1,0.1,0.2,0.2,0.2c0.7,0,3-1.1,7-3.3c4-2.2,7.1-5,9.5-8.2c2.4-3.3,4-7.7,4.8-13.5c-0.1,3.8,0,7,0.3,9.4
	c0.3,2.4,0.8,4.6,1.5,6.4c0.7,1.9,1.7,3.7,2.9,5.4c1.2,1.7,1.9,2.7,2.1,2.8c0.2,0.2,0.4,0.2,0.7,0.2c0.3,0,0.7-0.4,1.3-1.3
	c0.6-0.9,1.4-1.7,2.5-2.6c1.1-0.9,2-1.4,2.8-1.5c0.8-0.2,1.2-0.3,1.2-0.5s-0.3-0.4-0.8-0.7c-3.5-1.9-6.4-4.4-8.7-7.5
	c-2.3-3.1-3.8-6.5-4.4-10.2H117c1,0,1.6-0.2,1.6-0.7c0-0.5-1.2-1.6-3.4-3.4c-2.3-1.8-3.7-2.7-4.2-2.7c-0.2,0-0.3,0.1-0.4,0.2
	c-0.1,0.1-0.5,0.6-1,1.5c-0.6,0.9-1.2,1.9-1.9,3.1h-4.3c0.3-2.2,0.6-5.4,0.8-9.6c0.6-0.3,0.9-0.6,1-1h10.1c1,0,1.5-0.2,1.5-0.7
	c0-0.5-1.1-1.6-3.2-3.3c-2.1-1.7-3.4-2.6-3.9-2.6c-0.3,0-0.5,0.1-0.7,0.4c-0.2,0.2-1.1,1.7-2.8,4.3h-3.2c3.7-4.4,6.2-7.2,7.6-8.5
	c1.3-1.3,2.4-2.2,3.1-2.5c0.8-0.3,1.2-0.6,1.2-0.9c0-0.8-3.3-2.1-9.8-4c-0.6,5.6-2,10.9-4,16H89.3c-1.2,0-2.2-0.1-3-0.3l1,2.6
	c0.7-0.2,1.5-0.3,2.6-0.3h7c0,4.6-0.1,8.1-0.2,10.6H85.5V10.3c0.5-0.2,0.9-0.5,1.2-1h4c0.8,0,1.1-0.2,1.1-0.5c0-0.3-1-1.4-3.1-3.2
	C86.7,3.9,85.4,3,85,3c-0.2,0-0.5,0.1-0.7,0.4c-0.2,0.2-0.6,0.8-1.1,1.6c-0.5,0.8-1,1.6-1.3,2.4H64.5c-1,0-2-0.1-3-0.2L63,10
	c0.6-0.4,1.4-0.7,2.2-0.7H66V42.3z M78.7,18.7h-6.2v-8.4c0.6-0.2,1-0.5,1.3-1h5V18.7z M78.7,29.9h-6.2v-9.2h6.2V29.9z M78.7,31.9
	v8.2c-0.9,0.2-3,0.6-6.2,1.1v-9.4H78.7z M89.5,4.2c0,0.1,0.2,0.4,0.7,0.8c2.2,1.6,3.2,4,3.2,7.1c0,0.6,0,1.1-0.1,1.6
	c-0.1,0.5-0.1,0.8-0.1,1.1c0,1,0.3,1.8,0.9,2.4c0.6,0.6,1.4,0.9,2.5,0.9c1.1,0,2-0.5,2.9-1.4c0.8-0.9,1.3-2.1,1.3-3.4
	c0-1.4-0.7-2.7-1.9-4.2c-1.3-1.4-3-2.6-5.1-3.6c-2.1-1-3.4-1.5-3.9-1.5C89.6,4,89.5,4,89.5,4.2z M145.1,52.3h-21.1c-1,0-2-0.1-3-0.2
	l1.6,2.8c0.6-0.4,1.4-0.7,2.2-0.7h52c0.8,0,1.2-0.2,1.2-0.5c0-0.7-1.3-2.1-3.8-4.2c-2.5-2.1-4.1-3.2-4.8-3.2c-0.3,0-0.6,0.1-0.8,0.4
	c-0.2,0.2-0.7,0.9-1.4,2c-0.7,1.1-1.3,2.3-1.9,3.4h-12V14.2c0.5-0.1,0.9-0.4,1.1-0.9h18.4c0.8,0,1.3-0.2,1.3-0.6s-1.3-1.7-3.8-3.8
	c-2.6-2.1-4.2-3.2-4.8-3.2c-0.2,0-0.5,0.1-0.7,0.3c-0.2,0.2-0.7,1-1.6,2.2c-0.8,1.3-1.4,2.3-1.8,3.1h-32.5c-1,0-2-0.1-3-0.2l1.6,2.8
	c0.6-0.4,1.4-0.7,2.2-0.7h15.5V52.3z M209.8,3.8c0,0.2,0.2,0.4,0.7,0.7c2.2,1.3,3.3,3,3.3,5.2c0,0.4,0,0.7-0.1,1.1
	c-0.1,1,0.1,1.8,0.8,2.5c0.6,0.7,1.6,1.1,2.8,1.1s2.3-0.4,3.4-1.4c1-0.9,1.6-2.1,1.6-3.8c0-1.6-1-2.9-2.9-4
	c-1.9-1.1-4.6-1.6-7.9-1.6C210.3,3.6,209.8,3.7,209.8,3.8z M189.8,39.8l-8.5,1.1c0.5,1.5,1.2,3.2,2.1,5.2c0.9,2,1.5,3,1.6,3.2
	c0.2,0.2,0.3,0.3,0.5,0.3c0.2,0,0.5-0.2,1-0.6c0.5-0.4,2.1-1.3,4.6-2.8c2.6-1.4,7.7-4.2,15.4-8.3c0.6-0.3,0.8-0.6,0.8-0.8
	s-0.2-0.3-0.5-0.3l-10.1,1.8V24h8.9c0.6,0,1-0.2,1-0.6s-0.9-1.3-2.6-2.7c-1.7-1.4-2.8-2.1-3.2-2.1c-0.4,0-1.1,1.2-2.2,3.5h-1.9V8.1
	c1-0.4,1.6-0.9,1.6-1.4c0-0.2-0.1-0.4-0.4-0.6c-0.2-0.1-1.1-0.3-2.6-0.6c-1.5-0.2-3.4-0.5-5.7-0.7c0.1,1.6,0.1,3.3,0.1,5.3V22h-5
	c-1,0-2-0.1-3-0.2l1.6,2.8c0.6-0.4,1.4-0.7,2.2-0.7h4.3V39.8z M209.3,35.5c-0.6,4.5-2,8.4-4.1,11.8c-2.1,3.4-6.6,7-13.5,10.7
	c-0.8,0.4-1.1,0.7-1.1,1c0,0.1,0.1,0.1,0.3,0.1c0.8,0,3.7-1.1,8.8-3.4c5.1-2.2,9-5.3,11.8-9.1c2.8-3.8,4.6-9.6,5.6-17.4h8
	c-0.2,6-0.5,10.6-0.8,13.6c-0.3,3-0.7,4.9-1.1,5.6c-0.4,0.8-1,1.3-1.9,1.6c-0.9,0.3-2.3,0.5-4.2,0.5l-4.4-0.1c-0.7,0-1,0.1-1,0.2
	c0,0.1,0.5,0.4,1.5,0.6c3.4,1,5.3,2.8,5.6,5.4c0.1,0.6,0.3,1,0.5,1.2c0.3,0.2,0.7,0.3,1.4,0.3s1.9-0.2,3.6-0.5
	c1.7-0.3,3.2-1,4.3-1.9c1.1-0.9,1.9-2.5,2.2-4.6c0.4-2.1,0.7-5,1.1-8.5c0.4-3.5,0.7-7.7,1-12.5c1.3-0.5,2-1,2-1.4
	c0-0.6-1.2-1.6-3.7-3c-2.5-1.4-4.1-2.1-4.8-2.1c-0.3,0-0.5,0.1-0.7,0.2c-0.2,0.1-0.5,0.6-0.9,1.2c-0.4,0.7-0.7,1.4-1,2.1h-6.5
	c0.2-2,0.4-4.1,0.5-6.3c0.1-1.4,0.5-2.5,1.2-3.2h17.8c0.9,0,1.4-0.3,1.4-0.8c0-0.6-1.2-1.7-3.5-3.6c-2.3-1.8-3.7-2.7-4.2-2.7
	c-0.7,0-1.9,1.7-3.6,5.2h-23.6c-1,0-2-0.1-3-0.2l1.6,2.8c0.6-0.4,1.4-0.7,2.2-0.7h6.2C210.3,25.1,210,31,209.3,35.5z"/>
</svg>
