<?xml version="1.0" encoding="utf-8"?>
<!-- Generator: Adobe Illustrator 18.0.0, SVG Export Plug-In . SVG Version: 6.00 Build 0)  -->
<!DOCTYPE svg PUBLIC "-//W3C//DTD SVG 1.1//EN" "http://www.w3.org/Graphics/SVG/1.1/DTD/svg11.dtd">
<svg version="1.1" id="图层_1" xmlns="http://www.w3.org/2000/svg" xmlns:xlink="http://www.w3.org/1999/xlink" x="0px" y="0px"
	 viewBox="0 0 240.2 61.8" enable-background="new 0 0 240.2 61.8" xml:space="preserve">
<path fill="#333333" d="M26.8,8c-1-0.7-1.6-1-1.8-1c-0.4,0-1.2,1.2-2.4,3.5h-2.9V5.9c0.7-0.4,1.1-0.7,1.1-1c0-0.3-0.6-0.5-1.9-0.8
	c-1.3-0.3-3.2-0.4-5.8-0.5c0.1,1.6,0.1,3.3,0.1,5.3v1.6h-7c-1,0-2-0.1-3-0.2l1.6,2.8c0.6-0.4,1.4-0.7,2.2-0.7h6.2v3.8H8.5
	c-1,0-2-0.1-3-0.2l1.6,2.8c0.6-0.4,1.4-0.7,2.2-0.7h4v4.1H6c-1,0-2-0.1-3-0.2l1.6,2.8c0.6-0.4,1.4-0.7,2.2-0.7h6.5
	c0,1.2-0.1,2.2-0.2,3c-0.1,0.5,0.8,0.8,2.6,0.8c0.8,0,1.7-0.1,2.5-0.4c0.8-0.3,1.3-0.5,1.4-0.7c0.2-0.2,0.2-0.5,0.2-0.9v-1.8h17.8
	v2.7c0,0.4,0.1,0.7,0.3,0.8c0.2,0.1,0.8,0.2,1.9,0.2c1.1,0,2.1-0.1,2.9-0.3c0.8-0.2,1.3-0.4,1.5-0.5c0.2-0.2,0.3-0.4,0.3-0.6
	l-0.1-2.2h10.6c1,0,1.4-0.2,1.4-0.7S55.5,22.3,54,21c-1.5-1.3-2.5-2-2.9-2c-0.4,0-0.8,0.2-1.1,0.6c-0.3,0.4-0.9,1.3-1.7,2.7h-4v-4.1
	h8.6c0.7,0,1.1-0.3,1.1-0.8c0-0.5-0.8-1.4-2.3-2.6C50.1,13.6,49.2,13,49,13c-0.4,0-1.2,1.1-2.4,3.4h-2.3v-3.9h9.9
	c1.1,0,1.6-0.3,1.6-0.8c0-0.6-0.8-1.5-2.5-2.9c-1.7-1.4-2.7-2-3.1-2c-0.2,0-0.4,0.1-0.5,0.2c-0.1,0.1-0.4,0.6-0.9,1.3
	c-0.5,0.8-0.9,1.5-1.2,2.2h-3.3V5.8c0.8-0.5,1.3-0.9,1.3-1.1c0-0.3-0.4-0.5-1.3-0.7c-0.9-0.2-3.2-0.4-6.8-0.6
	c0.1,1.6,0.1,3.3,0.1,5.3v1.8h-7.7C28.7,9.5,27.8,8.6,26.8,8z M37.5,16.4h-4.1c-1,0-2-0.1-3-0.2l1.6,2.8c0.6-0.4,1.4-0.7,2.2-0.7
	h3.4v4.1h-7.1c-1-1-2.1-1.8-3.2-2.5c-1.1-0.7-1.8-1.1-2-1.1c-0.5,0-1.5,1.2-2.8,3.7h-2.8v-4.1h8.1c0.9,0,1.4-0.3,1.4-0.8
	c0-0.4-0.7-1.3-1.9-2.5c-1.3-1.2-2.1-1.8-2.4-1.8c-0.4,0-1.1,1-2.2,3.1h-2.9v-3.8h17.8V16.4z M11.2,34.7c-1,0-2-0.1-3-0.2l1.6,2.8
	c0.6-0.4,1.4-0.7,2.2-0.7h31.4v3.3H8.4c-1,0-2-0.1-3-0.2L7,42.6c0.6-0.4,1.4-0.7,2.2-0.7h15.5c1,0.6,1.7,1.3,2.1,2.1
	c0.4,0.8,0.7,2.1,0.7,3.7c0,0.9,0.3,1.6,0.9,2.2c0.6,0.6,1.4,0.8,2.3,0.8c1,0,1.8-0.4,2.5-1.1c0.7-0.8,1-1.7,1-2.8
	c0-1.1-0.4-2-1.2-2.8c-0.8-0.8-1.9-1.5-3.5-2.1h13.9v1.1c0,0.3,0.1,0.5,0.2,0.5c0.1,0.1,0.7,0.1,1.8,0.1c1.1,0,2-0.1,2.9-0.3
	c0.9-0.2,1.5-0.5,1.8-0.8c0.3-0.3,0.5-0.6,0.5-1.1l0.1-5.5v-2.6c1.2-0.4,1.7-0.9,1.7-1.3c0-0.4-1.2-1.4-3.5-2.8
	c-2.3-1.4-3.7-2.2-4.2-2.2c-0.2,0-0.3,0-0.4,0.1c-0.1,0.1-0.3,0.3-0.6,0.8c-0.3,0.4-0.6,0.9-0.8,1.4H8.8c-0.9,0-1.9-0.1-3-0.3
	l1.6,2.7c0.7-0.3,1.4-0.4,2.2-0.4h33.8v3.3H11.2z M8,43.7l0.1,1.3c0,2.1-1.2,3.9-3.5,5.3c-1.4,0.9-2.1,2-2.1,3.4
	c0,0.9,0.4,1.7,1.1,2.3c0.7,0.6,1.6,0.9,2.6,0.9c1,0,2-0.6,3.1-1.6c1.1-1.1,1.6-2.5,1.6-4.2c0-1.7-0.4-3.4-1.1-5.1
	c-0.8-1.7-1.3-2.5-1.5-2.5C8.1,43.3,8,43.4,8,43.7L8,43.7z M23.6,44.6c0-0.2-0.1-0.3-0.2-0.5c-0.2-0.1-1-0.2-2.4-0.4
	c-1.4-0.2-3.3-0.3-5.5-0.5c0.1,1.6,0.2,3.3,0.2,4.9v2.6c0,2.3,0.3,4,0.9,4.9c0.6,1,1.6,1.7,3,2.1c1.4,0.4,4.5,0.6,9.2,0.6
	s8-0.1,10-0.3c2-0.2,3.6-0.8,4.6-1.7c1.1-0.9,1.6-1.8,1.6-2.6c0-0.8-0.5-1.5-1.6-2.1c-2-1-3-3.1-3-6.1l0.1-1.4
	c0-0.4-0.1-0.6-0.2-0.6c-0.2,0-0.3,0.3-0.5,0.9c-1,3.9-1.9,6.2-2.7,7c-0.8,0.8-3.3,1.2-7.4,1.2c-0.5,0-1.6,0-3.3-0.1
	c-1.7,0-2.8-0.2-3.2-0.4c-0.4-0.2-0.7-0.6-0.9-1.1c-0.2-0.5-0.3-1.1-0.3-1.7v-3.6C23.1,45.6,23.6,45.1,23.6,44.6L23.6,44.6z
	 M42.2,44.2c0,0.1,0.2,0.3,0.5,0.6c1.9,1.4,3.3,2.6,4,3.7c0.8,1.1,1.5,2.7,2.3,4.8c0.5,1.4,1.4,2.1,2.5,2.1c1.2,0,2.1-0.4,2.9-1.2
	c0.7-0.8,1.1-1.9,1.1-3.2c0-1.4-0.6-2.6-1.9-3.6c-1.3-1-3.2-1.9-5.9-2.5c-2.6-0.6-4.3-0.9-5.1-0.9C42.4,44,42.2,44.1,42.2,44.2z
	 M77.6,23.6c0.7,0.6,1.1,1.3,1.2,2.1c0.1,0.8,0.3,1.3,0.5,1.4c0.2,0.1,0.5,0.2,1,0.2c1.5,0,2.7-0.2,3.8-0.6c1.1-0.4,1.9-1,2.5-1.8
	c0.6-0.8,1.1-2.2,1.7-4.3c0.6-2.1,1-4.4,1.2-6.9c1.2-0.4,1.7-0.8,1.7-1.3c0-0.5-1.1-1.4-3.3-2.8c-2.2-1.4-3.4-2-3.7-2
	c-0.2,0-0.4,0.1-0.6,0.3c-0.2,0.2-0.8,1.1-1.8,2.8h-3.7c0.1-0.4,0.1-1.1,0.2-1.9c0.1-0.8,0.2-1.5,0.5-2c0.3-0.5,0.6-0.9,1-1.1
	c0.4-0.2,0.6-0.5,0.6-0.8c0-0.2-0.1-0.4-0.3-0.5c-0.2-0.1-1-0.3-2.4-0.5c-1.4-0.2-3.3-0.5-5.8-0.8c0,2.1,0,4.6-0.1,7.6h-4.3
	c-1,0-2-0.1-3-0.2l1.6,2.8c0.6-0.4,1.4-0.7,2.2-0.7h3.4c-0.2,3.6-0.9,6.5-2.1,8.9c-1.1,2.4-3.2,4.6-6.1,6.6
	c-0.4,0.2-0.5,0.5-0.5,0.7c0,0.2,0.2,0.3,0.6,0.3c0.4,0,1.9-0.7,4.6-2.1c2.7-1.4,4.8-3.1,6.2-5C75.9,22.5,76.9,23,77.6,23.6z
	 M82.8,12.6c0.1,0.2-0.1,1.5-0.7,4c-0.5,2.4-0.9,3.8-1.1,4c-0.2,0.2-0.7,0.4-1.5,0.7c-0.8,0.2-1.7,0.3-2.6,0.3c-0.9,0-1.7,0-2.2-0.1
	c1.4-2.1,2.5-5.1,3.1-8.9H82.8z M92.4,6.5c0.1,1.7,0.2,3.4,0.2,5.1v9.7c0,1.7,0,3-0.1,4c-0.1,0.6,0.5,0.8,1.7,0.8
	c1.2,0,2.2-0.1,3-0.3c0.8-0.2,1.4-0.4,1.7-0.7c0.3-0.3,0.5-0.8,0.6-1.5h7.1v1.3c0,0.7,0.4,1,1.1,1c1.3,0,2.5-0.2,3.6-0.5
	c1.1-0.3,1.8-0.6,2.1-0.8c0.3-0.3,0.4-0.6,0.4-0.9l-0.1-1.4c0-0.6-0.1-1.2-0.1-1.9v-8.3c1.4-0.5,2.1-1,2.1-1.6
	c0-0.4-0.4-0.9-1.3-1.6c-0.9-0.6-2.2-1.4-3.8-2.2C109,6,108,5.6,107.7,5.6c-0.5,0-1.2,1.1-2.1,3.2h-6C98,8,95.5,7.3,92.4,6.5
	L92.4,6.5z M99.4,21.6V11.5c0.5-0.2,0.9-0.4,1.2-0.8h5.9v10.9H99.4z M79.7,39.9l0.7-5c1-0.4,1.6-0.8,1.6-1.2c0-0.4-0.4-0.7-1.3-1.1
	c-0.9-0.3-2.9-0.8-6.1-1.4c0,0.3,0,1-0.1,2l-0.6,4.4c-0.1,0.8-0.6,1.4-1.4,1.9c-0.4,0.2-0.7,0.5-0.7,0.7c0,0.2,0.2,0.5,0.6,0.7
	c0.4,0.2,1.3,0.7,2.8,1.5c1.5,0.7,2.4,1.1,2.7,1.1c0.3,0,0.6-0.2,0.9-0.5l0.7-1.1h28.9c-0.4,5.6-1.1,8.7-2,9.3
	c-0.9,0.6-2.7,0.9-5.3,0.9l-4.1-0.1c-0.5,0-0.7,0.1-0.7,0.2s0.6,0.3,1.9,0.7c1.3,0.3,2.3,0.8,3.1,1.4c0.8,0.6,1.2,1.6,1.3,3
	c0,1.1,0.6,1.6,1.6,1.6c1,0,2.6-0.3,4.8-0.8c2.2-0.5,3.7-1.7,4.6-3.6c0.9-1.9,1.6-5.3,2.1-10.3c1.4-0.5,2-1.1,2-1.7
	c0-0.2-0.1-0.5-0.4-0.8c-0.3-0.3-0.9-0.9-1.9-1.6c-1-0.8-2-1.5-3-2.1c-1-0.7-1.7-1-1.9-1c-0.3,0-0.6,0.2-1,0.7
	c-0.4,0.5-0.8,1.2-1.4,2.3h-2.6l1.1-7.9c1.3-0.3,2-0.7,2-1.2c0-0.5-1.2-1.5-3.5-2.9c-2.3-1.5-3.7-2.2-4-2.2c-0.2,0-0.6,0.3-1,0.9
	c-0.4,0.6-0.9,1.2-1.3,1.9H72.7c-1,0-2,0-3-0.1l1.5,2.5c0.7-0.3,1.4-0.4,2.2-0.4h26.1l-1.3,9.5H79.7z M67.4,47.3c-1,0-2-0.1-3-0.2
	l1.6,2.8c0.6-0.4,1.4-0.7,2.2-0.7h32.8c1,0,1.5-0.4,1.5-1.1c0-0.7-0.9-1.8-2.8-3.1c-1.9-1.4-2.9-2-3.2-2c-0.2,0-0.4,0.2-0.7,0.5
	c-0.3,0.3-1.1,1.6-2.6,3.8H67.4z M161.2,6.3c1-0.3,1.5-0.7,1.5-1.1c0-0.2-0.1-0.5-0.4-0.6c-0.3-0.2-1.2-0.4-2.8-0.6
	s-3.4-0.4-5.6-0.6c0.1,1.6,0.1,3.3,0.1,5.3v8.9h-4.9c0.5-1.2,1.1-2.7,1.7-4.5c0.6-1.8,1.2-2.8,1.6-3c0.5-0.2,0.7-0.4,0.7-0.7
	c0-0.5-0.9-1-2.7-1.6c-1.8-0.6-4.1-1.1-6.8-1.7c-0.3,10.6-1.7,18.4-4.1,23.5c-0.6,0-1.7,0-3.1-0.2l1.6,2.8c0.6-0.4,1.4-0.7,2.2-0.7
	h5.9c-0.1,7-0.7,11.9-1.9,14.8s-2.5,5.1-3.8,6.5c-1.3,1.5-3.3,3-5.7,4.4c-0.5,0.3-0.8,0.5-0.8,0.7s0.1,0.2,0.2,0.2
	c0.5,0,1.9-0.5,4.4-1.4c2.5-0.9,4.6-2.1,6.5-3.4c1.9-1.3,3.4-2.8,4.5-4.3c1.1-1.5,2.1-3.3,2.8-5.5c0.7-2.1,1.3-5,1.7-8.5
	c0.1-1,0.2-1.7,0.4-2.1c0.1-0.4,0.3-0.6,0.6-0.8s0.5-0.4,0.6-0.6h1.7v19.8c0,2.4,0.6,4.1,1.9,5c1.3,0.9,4,1.4,8,1.4
	c4,0,6.8-0.6,8.4-1.7c1.6-1.1,2.4-2.1,2.4-3.1c0-0.7-0.4-1.2-1.1-1.7c-1.3-0.7-2.1-1.6-2.5-2.6c-0.4-1-0.6-2.4-0.6-4.1l0.1-3.4
	c0-0.5-0.1-0.8-0.3-0.8c-0.2,0-0.4,0.4-0.5,1.1c-0.6,2.9-1.2,5-1.8,6.4c-0.5,1.4-1.1,2.3-1.7,2.7c-0.6,0.4-1.4,0.6-2.4,0.6
	c-1,0-1.7-0.1-2.1-0.3c-0.4-0.2-0.6-0.7-0.6-1.6V32.3c0.4-0.2,0.8-0.4,1-0.7h11.5c0.8,0,1.1-0.2,1.1-0.7c0-0.4-1.1-1.6-3.4-3.5
	c-2.2-1.9-3.6-2.9-4.2-2.9c-0.7,0-2,1.7-3.8,5h-5.6V19.5h12.4c1.1,0,1.6-0.2,1.6-0.7c0-0.4-1.1-1.6-3.2-3.4c-2.1-1.8-3.5-2.7-4-2.7
	c-0.6,0-1.6,1.6-3.2,4.8h-3.5V6.3z M154,29.6h-12.8c2.8-2.9,5.2-6.2,7.1-10.1h5.8V29.6z M125.3,6.9c0,0.2,0.3,0.4,0.8,0.6
	c2.3,1.1,3.5,3.3,3.7,6.4c0,0.9,0.3,1.6,0.9,2.2c0.5,0.5,1.3,0.8,2.3,0.8s1.9-0.4,2.8-1.2c0.8-0.8,1.3-1.8,1.3-2.9
	c0-2.2-1-3.8-3.1-4.7c-2.1-0.9-4.7-1.4-7.8-1.4C125.5,6.6,125.3,6.7,125.3,6.9z M140.9,10.3c0-0.2-0.1-0.4-0.2-0.4
	c-0.1,0-0.4,0.4-0.6,1.1l-7,20.5c-0.9,2.6-1.9,4.4-3.2,5.5c-1.2,1.1-2.9,1.6-4.9,1.6c-0.5,0-1.1,0-1.7-0.1c-0.6-0.1-0.9,0-0.9,0.2
	c0,0.2,0.3,0.4,0.8,0.5c1.8,0.5,3.1,1.2,3.9,2.1c0.8,0.9,1.2,2.2,1.2,3.8c0,1.6-0.5,3.8-1.5,6.6c-0.4,1-0.5,1.9-0.5,2.7
	c0,2.4,1.4,3.5,4.1,3.5c1.4,0,2.6-0.5,3.5-1.4c0.9-0.9,1.4-2.2,1.4-3.8c0-0.7-0.2-1.9-0.6-3.6c-0.4-1.7-0.6-3.9-0.6-6.5
	c0-2.6,0.4-5.6,1.2-9.1l5.4-22.6C140.8,10.8,140.9,10.5,140.9,10.3z M122.3,19.6c0,0.1,0.2,0.3,0.5,0.5c1.9,1.3,2.9,3.1,2.9,5.6
	c0,0.4,0,0.8,0,1.3c0,0.5,0.2,1,0.4,1.4c0.3,0.5,0.7,0.9,1.2,1.1c0.5,0.3,1.2,0.4,2,0.4c0.9,0,1.7-0.4,2.5-1.2
	c0.8-0.8,1.3-1.7,1.3-2.5c0-2.4-1-4.2-2.9-5.2c-2-1-4.4-1.6-7.3-1.6C122.5,19.4,122.3,19.5,122.3,19.6z M195.1,19.9
	c-2,2.6-3.3,4.3-4,5c-0.7,0.7-1.3,1.3-2,1.6c-0.6,0.3-1.3,0.6-2,0.6c-0.7,0.1-1,0.4-1,1c0,0.3,0.1,0.5,0.3,0.8
	c0.2,0.2,0.7,0.8,1.3,1.7c0.7,0.9,1.4,1.6,2.1,2.4s1.2,1.1,1.5,1.1c0.3,0,0.6-0.1,0.9-0.4l3.7-2.7H209v8.6h-25.3c-1,0-2-0.1-3-0.2
	l1.6,2.8c0.6-0.4,1.4-0.7,2.2-0.7H209v8.9c0,2,0,3.8-0.1,5.4l-0.1,2.3c0,0.4,0,0.6,0.1,0.8c0.1,0.1,0.4,0.2,1,0.2
	c0.6,0,1.3-0.1,2.2-0.2c0.9-0.1,1.7-0.4,2.5-0.7c0.8-0.3,1.2-0.6,1.4-0.8c0.2-0.2,0.3-0.4,0.3-0.6l-0.1-2c-0.1-1.5-0.1-2.9-0.1-4.2
	v-9.1h20.5c0.8,0,1.2-0.2,1.2-0.7c0-0.5-1.2-1.7-3.6-3.6c-2.4-2-3.8-2.9-4.3-2.9c-0.2,0-0.3,0.1-0.4,0.2c-0.1,0.1-0.5,0.7-1.3,1.6
	c-0.7,1-1.5,2.1-2.4,3.5H216v-8.6H231c0.8,0,1.2-0.2,1.2-0.7c0-0.5-1.1-1.6-3.4-3.5c-2.2-1.9-3.7-2.8-4.3-2.8
	c-0.3,0-0.6,0.1-0.8,0.4c-0.2,0.2-1.2,1.8-3.1,4.6H216v-7.7c1.1-0.4,1.6-0.9,1.6-1.3c0-0.2-0.2-0.4-0.6-0.6
	c-0.4-0.2-1.3-0.3-2.9-0.5c-1.6-0.2-3.3-0.3-5.3-0.3c0.1,1.6,0.1,3.3,0.1,5.3v5h-12.5c1.8-2.4,5.6-7.2,11.5-14.5h26.2
	c0.8,0,1.3-0.2,1.3-0.5c0-0.3-0.2-0.7-0.7-1.2c-0.4-0.5-1.2-1.1-2.1-2c-1-0.8-2-1.7-3-2.4c-1-0.8-1.7-1.2-2-1.2
	c-0.3,0-0.6,0.2-0.9,0.7l-3.1,4.6h-14.2c1.2-1.6,2.2-3,2.9-4c0.7-1,1.2-1.5,1.5-1.6c0.7-0.1,1-0.4,1-0.7c0-0.2-0.1-0.4-0.3-0.6
	c-0.2-0.2-1.2-0.6-3-1.2c-1.8-0.6-3.7-1.1-5.8-1.7c-1.7,3.6-3.5,6.9-5.5,9.8h-14.2c-1,0-2-0.1-3-0.2l1.6,2.8
	c0.6-0.4,1.4-0.7,2.2-0.7h12.1C198.4,15.4,197.1,17.2,195.1,19.9z"/>
</svg>
