<?xml version="1.0" encoding="utf-8"?>
<!-- Generator: Adobe Illustrator 18.0.0, SVG Export Plug-In . SVG Version: 6.00 Build 0)  -->
<!DOCTYPE svg PUBLIC "-//W3C//DTD SVG 1.1//EN" "http://www.w3.org/Graphics/SVG/1.1/DTD/svg11.dtd">
<svg version="1.1" id="图层_1" xmlns="http://www.w3.org/2000/svg" xmlns:xlink="http://www.w3.org/1999/xlink" x="0px" y="0px"
	 viewBox="0 0 473.5 49.5" enable-background="new 0 0 473.5 49.5" xml:space="preserve">
<path fill="#333333" d="M9.5,38.3c0,1.1-0.1,1.9-0.4,2.3c-0.3,0.4-0.7,0.7-1.3,0.8l-4.1,1v1.9h12.6l9.7,0.2c2.8,0.1,5.5-0.4,8-1.3
	s4.7-2.3,6.6-4c1.9-1.7,3.4-3.8,4.5-6.2c1.1-2.4,1.7-5,1.7-7.8c0-3.2-0.6-5.9-1.7-8.2c-1.1-2.3-2.7-4.3-4.7-5.8
	c-2-1.6-4.3-2.7-7-3.5c-2.7-0.8-5.6-1.2-8.7-1.2c-1.4,0-3,0-4.8,0.1c-1.8,0.1-3.7,0.1-5.5,0.2c-1.9,0.1-3.7,0.2-5.5,0.2
	c-1.8,0.1-3.3,0.1-4.6,0v2l3.5,0.7c0.7,0.2,1.1,0.4,1.4,0.8c0.2,0.4,0.4,1.1,0.4,2V38.3z M16.8,12.4c0-1.5,0.3-2.4,0.8-2.9
	c0.1-0.1,0.3-0.2,0.5-0.3c0.2-0.1,0.5-0.1,0.8-0.2c0.4-0.1,0.8-0.1,1.4-0.1c0.6,0,1.3,0,2.2,0c5,0,8.9,1.4,11.6,4.2
	c2.8,2.8,4.1,6.8,4.1,11.8c0,2.5-0.2,4.8-0.7,6.9s-1.3,3.9-2.3,5.4c-1.1,1.5-2.5,2.7-4.2,3.6c-1.7,0.9-3.9,1.3-6.4,1.3
	c-1.4,0-2.6-0.1-3.6-0.5c-1-0.3-1.8-0.7-2.5-1.2c-0.6-0.5-1.1-1.1-1.4-1.7c-0.3-0.6-0.5-1.2-0.5-1.9V12.4z M66.9,6.9
	c-0.6,0-1.3,0-2.1,0.1c-0.8,0-1.6,0-2.5,0c-0.9,0-1.7,0-2.5,0c-1.7,0-3.4,0-5.1,0c-1.7,0-3.2-0.1-4.5-0.1v1.7l3.5,0.5
	c0.6,0.1,0.9,0.3,1.1,0.8c0.2,0.4,0.3,1.1,0.3,2.1v21c0,4.1,1.4,7.3,4.3,9.4c2.9,2.2,7,3.2,12.3,3.2c5,0,8.5-1.3,10.7-4
	c2.2-2.7,3.3-6.7,3.3-11.9V12c0-1.7,0.4-2.6,1.3-2.8l3.5-0.8V6.8c-0.5,0.1-1.5,0.1-3,0.1c-1.5,0-3,0-4.5,0C80,7,77.9,6.9,77,6.8v1.7
	l3.5,0.7C82.1,9.4,83,10.4,83,12v15.9c0,2.8-0.2,5.1-0.6,7c-0.4,1.9-1,3.4-1.9,4.5c-0.9,1.1-2,1.9-3.3,2.4c-1.3,0.5-3,0.7-4.9,0.7
	c-3.1,0-5.5-0.8-7.1-2.5c-1.6-1.7-2.4-4.1-2.4-7.4V11.9c0-1,0.2-1.7,0.5-2.2c0.3-0.5,0.8-0.7,1.5-0.8l3.6-0.5V6.8
	C68,6.8,67.5,6.9,66.9,6.9z M111.1,9.3c0.7,0.1,1.2,0.2,1.6,0.3c0.4,0.1,0.6,0.2,0.8,0.4c0.2,0.2,0.3,0.3,0.3,0.5c0,0.2,0,0.5,0,0.8
	v27.4c0,1.2-0.2,1.9-0.5,2.3c-0.3,0.4-0.9,0.7-1.6,0.9l-3,0.7v1.9h4.9c2.2,0,4.4,0,6.5,0c2.2,0,4.3,0,6.5,0c2.3,0,4.5-0.3,6.6-0.8
	c2.1-0.6,3.9-1.3,5.5-2.3c1.6-1,2.8-2.2,3.8-3.6c0.9-1.4,1.4-2.9,1.4-4.6c0-1.7-0.3-3.2-0.9-4.4c-0.6-1.2-1.4-2.2-2.4-3
	c-1-0.8-2.2-1.4-3.6-1.9c-1.4-0.5-2.9-0.8-4.6-1.1c1.1-0.2,2.2-0.6,3.2-1.1c1-0.5,1.8-1.1,2.6-1.8c0.7-0.7,1.3-1.4,1.7-2.3
	c0.4-0.9,0.6-1.8,0.6-2.7c0-1.7-0.4-3.1-1.3-4.2c-0.9-1.1-2-2-3.4-2.6c-1.4-0.6-2.9-1.1-4.7-1.4c-1.7-0.3-3.5-0.4-5.2-0.4
	c-0.6,0-2.2,0.1-4.6,0.2c-2.4,0.1-5.5,0.3-9.2,0.4l-3.5,0.2v1.8L111.1,9.3z M121.2,9.2c1.4-0.4,3-0.5,4.6-0.5c0.9,0,1.7,0.1,2.6,0.4
	c0.8,0.3,1.5,0.7,2.2,1.2c0.6,0.5,1.1,1.2,1.5,2c0.4,0.8,0.5,1.7,0.5,2.7c0,2.5-0.6,4.4-1.7,5.8c-1.1,1.3-2.8,2-5.1,2
	c-1.3,0-2.3,0-3,0c-0.7,0-1.2-0.1-1.5-0.1V9.2z M123.6,25.1c0.8,0,1.5-0.1,2.2-0.1c3.1,0,5.5,0.8,7.1,2.2c1.6,1.5,2.4,3.8,2.4,6.8
	c0,2.5-0.7,4.5-2.1,6c-1.4,1.5-3.3,2.2-5.7,2.2c-2,0-3.6-0.4-4.7-1.1c-1.1-0.8-1.7-1.9-1.7-3.4V25.3C122,25.2,122.8,25.1,123.6,25.1
	z M177.1,43.9c2.6-1,4.9-2.3,6.7-4c1.9-1.7,3.3-3.7,4.3-6.1c1-2.4,1.5-4.9,1.5-7.7c0-2.8-0.5-5.4-1.6-7.8c-1.1-2.4-2.5-4.4-4.4-6.2
	c-1.9-1.7-4.1-3.1-6.6-4.1c-2.5-1-5.3-1.5-8.3-1.5c-3,0-5.8,0.5-8.4,1.4c-2.6,0.9-4.9,2.3-6.9,4c-2,1.7-3.5,3.8-4.6,6.2
	c-1.1,2.4-1.7,5.1-1.7,8.1c0,2.9,0.5,5.5,1.6,7.9c1.1,2.4,2.6,4.4,4.5,6c1.9,1.7,4.2,2.9,6.8,3.8c2.6,0.9,5.3,1.3,8.3,1.3
	C171.6,45.3,174.5,44.8,177.1,43.9z M156.6,20c0.5-2.1,1.3-4,2.3-5.6c1-1.6,2.3-3,3.9-4c1.6-1,3.5-1.5,5.6-1.5c2.1,0,4,0.5,5.6,1.4
	c1.6,0.9,2.9,2.2,4,3.8c1.1,1.6,1.8,3.4,2.4,5.6c0.5,2.1,0.8,4.4,0.8,6.7c0,5.5-1.1,9.6-3.2,12.4c-2.2,2.8-5.2,4.2-9.1,4.2
	c-2,0-3.9-0.5-5.4-1.4c-1.6-1-2.9-2.2-4.1-3.8c-1.1-1.6-2-3.3-2.6-5.3c-0.6-2-0.9-4-0.9-6C155.8,24.3,156.1,22.1,156.6,20z
	 M223.3,43.9c2.6-1,4.9-2.3,6.7-4c1.9-1.7,3.3-3.7,4.3-6.1c1-2.4,1.5-4.9,1.5-7.7c0-2.8-0.5-5.4-1.6-7.8c-1.1-2.4-2.5-4.4-4.4-6.2
	c-1.9-1.7-4.1-3.1-6.6-4.1c-2.5-1-5.3-1.5-8.3-1.5c-3,0-5.8,0.5-8.4,1.4c-2.6,0.9-4.9,2.3-6.9,4c-2,1.7-3.5,3.8-4.7,6.2
	c-1.1,2.4-1.7,5.1-1.7,8.1c0,2.9,0.5,5.5,1.7,7.9c1.1,2.4,2.6,4.4,4.5,6c1.9,1.7,4.2,2.9,6.8,3.8c2.6,0.9,5.3,1.3,8.3,1.3
	C217.7,45.3,220.6,44.8,223.3,43.9z M202.7,20c0.5-2.1,1.3-4,2.3-5.6c1-1.6,2.3-3,3.9-4c1.6-1,3.4-1.5,5.6-1.5c2.1,0,4,0.5,5.6,1.4
	c1.6,0.9,2.9,2.2,4,3.8c1.1,1.6,1.8,3.4,2.4,5.6c0.5,2.1,0.8,4.4,0.8,6.7c0,5.5-1.1,9.6-3.2,12.4s-5.2,4.2-9.1,4.2
	c-2,0-3.9-0.5-5.4-1.4c-1.6-1-2.9-2.2-4-3.8c-1.1-1.6-2-3.3-2.6-5.3c-0.6-2-0.9-4-0.9-6C202,24.3,202.2,22.1,202.7,20z M260.8,16.4
	L261,9c-2.3-1.8-5.2-2.6-8.7-2.6c-1.5,0-3.1,0.2-4.6,0.6c-1.5,0.4-2.9,1-4.2,1.8c-1.2,0.8-2.2,1.9-3,3.2c-0.8,1.3-1.1,2.9-1.1,4.8
	c0,1.1,0.1,2.1,0.4,3.2c0.3,1,0.7,2,1.4,2.9c0.7,0.9,1.6,1.8,2.7,2.6c1.2,0.8,2.6,1.6,4.4,2.4c1.6,0.7,3,1.3,4.3,1.8
	c1.3,0.5,2.3,1,3.2,1.6c0.9,0.6,1.5,1.3,1.9,2.1c0.4,0.8,0.7,1.9,0.7,3.1c0,1-0.2,1.8-0.6,2.5c-0.4,0.7-1,1.4-1.7,1.9
	c-0.7,0.5-1.5,0.9-2.5,1.1c-0.9,0.3-1.9,0.4-2.9,0.4c-1.3,0-2.5-0.2-3.6-0.7c-1.1-0.5-2.1-1.1-3-2c-0.9-0.9-1.6-1.9-2.1-3
	s-0.9-2.4-0.9-3.7h-1.3l-0.7,9.5c3.2,1.9,6.7,2.8,10.6,2.8c2.1,0,4-0.3,5.7-0.8c1.7-0.6,3.2-1.4,4.5-2.4s2.2-2.3,2.9-3.7
	c0.7-1.5,1-3.1,1-5c0-1.8-0.2-3.2-0.6-4.5c-0.4-1.2-1-2.3-1.9-3.2c-0.8-0.9-1.9-1.8-3.2-2.5c-1.3-0.7-2.9-1.5-4.7-2.2
	c-1.2-0.5-2.4-1-3.4-1.4c-1-0.4-1.9-0.9-2.7-1.4c-0.8-0.5-1.3-1.1-1.8-1.8c-0.4-0.7-0.6-1.5-0.6-2.5c0-1.6,0.6-2.8,1.9-3.7
	c1.3-0.9,2.8-1.3,4.4-1.3c2.3,0,4.1,0.6,5.5,1.7c1.3,1.2,2.3,3.1,2.9,5.7H260.8z M266.6,14.3c-0.1,0.6-0.2,1.1-0.3,1.5
	c-0.1,0.5,0,0.8,0.1,1c0.1,0.2,0.3,0.2,0.5,0c0.3-0.2,0.7-0.7,1.2-1.4c0.8-1.1,1.4-2,2-2.7c0.6-0.7,1.1-1.2,1.6-1.6
	c0.5-0.4,1-0.6,1.5-0.8c0.5-0.1,1-0.2,1.7-0.1h6.2v29c0,1-0.2,1.7-0.5,2.2c-0.4,0.5-1.1,0.9-2.3,1.1l-4.6,0.8v1.6
	c0.2,0,0.7-0.1,1.3-0.1c0.6,0,1.4,0,2.3-0.1c0.9,0,1.9,0,3.1,0c1.1,0,2.3,0,3.4,0c1.2,0,2.4,0,3.5,0c1.2,0,2.2,0,3.3,0
	c1,0,2,0,2.8,0.1c0.8,0,1.5,0.1,2,0.1v-1.6l-4.7-1c-0.8-0.2-1.4-0.5-1.7-0.9c-0.3-0.4-0.4-1.1-0.4-2.1V10h6.1c1.1,0,1.9,0.1,2.6,0.3
	c0.6,0.2,1.2,0.5,1.6,0.9c0.4,0.4,0.7,0.9,0.9,1.5c0.2,0.6,0.4,1.3,0.6,2c0.2,0.8,0.3,1.4,0.5,1.7c0.2,0.3,0.4,0.5,0.6,0.6
	c0.2,0.1,0.3,0,0.4-0.2c0.1-0.2,0.1-0.4,0.1-0.8l0.1-10.7c0-0.8-0.3-1.2-0.8-1.2c-0.3,0-0.7,0.4-1,1.1c-0.2,0.4-0.3,0.7-0.5,0.9
	c-0.2,0.2-0.4,0.4-0.6,0.5c-0.3,0.1-0.6,0.2-1,0.3c-0.4,0-1,0.1-1.8,0.1h-23.2c-0.4,0-0.8,0-1.1,0c-0.3,0-0.6-0.1-0.8-0.2
	c-0.2-0.1-0.4-0.3-0.6-0.5c-0.2-0.2-0.4-0.5-0.6-0.9c-0.4-0.8-0.8-1.2-1.1-1.2c-0.3,0-0.6,0.5-0.8,1.6L266.6,14.3z M340.8,32.9
	c-0.8,1.8-1.6,3.3-2.4,4.5c-0.8,1.2-1.6,2.1-2.4,2.7c-0.8,0.6-1.6,1.1-2.4,1.3c-0.8,0.2-1.6,0.4-2.5,0.4h-10.2c-1,0-1.7-0.2-2-0.5
	c-0.3-0.3-0.5-0.9-0.5-1.8v-13h7.9c1,0,2,0.2,2.9,0.5c0.9,0.4,1.5,1,1.9,1.8l1.9,4.1h1.2c-0.2-4.8-0.2-9.6,0-14.4h-1.7l-1.4,4
	c-0.2,0.7-0.7,1.2-1.3,1.4c-0.6,0.2-1.4,0.4-2.2,0.4h-9.2V12.1c0-0.9,0.1-1.6,0.4-2c0.2-0.4,0.7-0.6,1.4-0.6h10.8
	c0.7,0,1.4,0.1,2,0.3c0.6,0.2,1.1,0.5,1.6,1c0.5,0.5,1,1.2,1.4,2.1c0.4,0.9,0.8,2.1,1.2,3.6h0.8c0-0.6-0.1-1.4-0.1-2.2
	c0-0.9,0-1.7,0-2.6c0-0.9,0-1.8,0-2.6c0-0.9,0.1-1.6,0.1-2.2c-1.6,0.1-3.6,0.1-6.1,0.1c-2.5,0-5.6,0-9.4,0c-3.8,0-7.2,0-10.3,0
	c-3.1,0-5.4-0.1-7.1-0.1v1.7l4.2,0.4c0.6,0.1,0.9,0.3,1.2,0.7c0.2,0.4,0.3,1.1,0.3,2v29c0,0.9-0.1,1.5-0.4,1.7
	c-0.3,0.2-0.7,0.3-1.4,0.4l-4.1,0.3v1.6c2.5-0.1,5.4-0.1,8.7-0.1c3.3,0,6.6,0,10,0c3.4,0,6.5,0,9.2,0c2.7,0,5.3,0.1,7.8,0.1
	c0-0.7,0.1-1.6,0.2-2.5c0.1-1,0.2-2,0.3-3c0.1-1,0.3-2.1,0.4-3.2c0.2-1.1,0.4-2,0.6-3H340.8z M345,44.7c1.2-0.1,2.5-0.1,4-0.2
	c1.5,0,3-0.1,4.6-0.1c1.6,0,3.2,0,4.8,0.1c1.6,0,3.1,0.1,4.6,0.2V43l-2.9-0.7c-1-0.2-1.6-0.6-2-1c-0.4-0.4-0.6-1.1-0.6-2.1V26.3h1.9
	c0.7,0,1.2,0.2,1.7,0.5c0.5,0.3,0.9,0.8,1.3,1.4l8.6,16.4c0.2,0,0.6,0,1.3,0c0.6,0,1.4,0,2.2,0c0.8,0,1.6,0,2.4,0c0.8,0,1.5,0,2.1,0
	c1.1,0,2.2,0,3.1,0c1,0,1.9,0,2.7,0.1v-1.7c-1-0.2-1.9-0.3-2.7-0.4c-0.7-0.1-1.4-0.4-2.1-0.9c-0.7-0.4-1.3-1.1-2-2
	c-0.7-0.9-1.5-2.1-2.5-3.8L369.2,25c1.2-0.6,2.3-1.2,3.2-1.7c0.9-0.6,1.7-1.2,2.4-1.9c0.6-0.7,1.1-1.5,1.5-2.3
	c0.3-0.9,0.5-1.9,0.5-3.1c0-1.8-0.4-3.4-1.3-4.6c-0.8-1.2-2-2.2-3.4-3c-1.4-0.7-3.1-1.3-5-1.6c-1.9-0.3-3.9-0.4-6-0.4
	c-0.4,0-0.7,0-1.1,0c-0.4,0-0.8,0-1.2,0l-9.1,0.4c-0.4,0-0.7,0-0.9,0.1c-0.2,0-0.5,0.1-0.8,0.1c-0.3,0-0.6,0-1.1,0
	c-0.4,0-1.1,0-1.9,0c0,0.3,0,0.6,0,0.9c0,0.3,0,0.6,0,0.9l1.3,0.1c0.8,0.1,1.4,0.2,1.9,0.4c0.4,0.2,0.8,0.4,1,0.7
	c0.2,0.3,0.3,0.7,0.4,1.1c0,0.5,0.1,1,0.1,1.6v26.7c0,1.3-0.2,2.1-0.6,2.4c-0.4,0.3-1.2,0.6-2.3,0.7L345,43V44.7z M357.5,9.1
	c0.4,0,0.8-0.1,1.3-0.1c0.5,0,0.9,0,1.3,0c3.1,0,5.2,0.7,6.4,2c1.2,1.4,1.8,3.3,1.8,5.8c0,1.1-0.2,2.1-0.5,3c-0.4,0.9-1,1.7-1.8,2.3
	c-0.8,0.6-2,1.1-3.3,1.4c-1.4,0.3-3.1,0.5-5.1,0.4V9.1z M427.8,33.4h-1.9c-0.4,1-0.7,1.8-0.9,2.5c-0.2,0.7-0.5,1.3-0.8,1.7
	c-0.3,0.5-0.7,0.8-1.2,1c-0.5,0.2-1.3,0.3-2.3,0.3h-13c1-1.6,2.1-3,3.2-4.2c1.2-1.2,2.3-2.2,3.3-3.1l1.8-1.4c1.4-1,2.7-2.1,3.9-3.2
	s2.4-2.2,3.3-3.4c1-1.2,1.7-2.4,2.3-3.8c0.6-1.3,0.8-2.8,0.8-4.3c0-1.5-0.3-2.8-0.9-3.9c-0.6-1.1-1.4-2.1-2.3-2.9
	c-1-0.8-2.1-1.4-3.4-1.8c-1.3-0.4-2.6-0.6-4.1-0.6c-3.2,0-5.9,1-8,2.9c-2.1,1.9-3.5,4.8-4.1,8.4l1.9,0.7c0.5-2.5,1.4-4.4,2.7-5.7
	c1.3-1.3,3-2,5-2c2,0,3.5,0.6,4.7,1.7c1.2,1.1,1.7,2.6,1.7,4.5c0,1-0.1,1.9-0.2,2.7c-0.1,0.8-0.4,1.7-0.9,2.7
	c-0.5,0.9-1.2,2-2.1,3.1c-0.9,1.2-2.2,2.5-3.7,4.1l-2.2,2.3c-1.5,1.6-2.7,2.9-3.6,4.1c-0.9,1.2-1.6,2.2-2.1,3.2
	c-0.5,1-0.9,1.9-1.1,2.8c-0.2,0.9-0.4,1.8-0.5,2.8c1.4-0.1,3.2-0.1,5.3-0.1c2.1,0,4.5,0,7.2,0c2.6,0,4.7,0,6.4,0.1
	c1.7,0,3.2,0.1,4.7,0.1L427.8,33.4z M438.7,44.2c0.7-0.7,1.1-1.6,1.1-2.6c0-1-0.4-1.9-1.1-2.6c-0.7-0.7-1.6-1.1-2.6-1.1
	c-1,0-1.9,0.4-2.6,1.1c-0.7,0.7-1.1,1.6-1.1,2.6c0,1,0.4,1.9,1.1,2.6c0.7,0.7,1.6,1.1,2.6,1.1C437.1,45.3,438,44.9,438.7,44.2z
	 M451.8,7.9c-1.6,1-2.9,2.4-4.1,4.1c-1.2,1.8-2.1,3.8-2.8,6.2c-0.7,2.4-1,5-1,7.7c0,2.7,0.3,5.3,1,7.7c0.7,2.4,1.6,4.4,2.9,6.2
	c1.2,1.7,2.6,3.1,4.2,4.1c1.6,1,3.2,1.5,5,1.5c1.8,0,3.4-0.5,5-1.5s2.9-2.4,4.1-4.2c1.2-1.8,2.1-3.8,2.8-6.2c0.7-2.4,1-4.9,1-7.6
	c0-2.7-0.4-5.3-1-7.6c-0.7-2.4-1.6-4.4-2.8-6.2c-1.2-1.8-2.6-3.2-4.1-4.2c-1.6-1-3.2-1.5-5-1.5C455,6.4,453.4,6.9,451.8,7.9z
	 M451.1,25.9c0-6,0.4-10.3,1.2-13.1c0.8-2.8,2.3-4.2,4.5-4.2s3.6,1.4,4.5,4.2c0.8,2.8,1.2,7.2,1.2,13.1c0,5.9-0.4,10.3-1.2,13.1
	c-0.8,2.8-2.3,4.2-4.5,4.2C453,43.2,451.1,37.4,451.1,25.9L451.1,25.9z"/>
</svg>
