<?xml version="1.0" encoding="utf-8"?>
<!-- Generator: Adobe Illustrator 18.0.0, SVG Export Plug-In . SVG Version: 6.00 Build 0)  -->
<!DOCTYPE svg PUBLIC "-//W3C//DTD SVG 1.1//EN" "http://www.w3.org/Graphics/SVG/1.1/DTD/svg11.dtd">
<svg version="1.1" id="图层_1" xmlns="http://www.w3.org/2000/svg" xmlns:xlink="http://www.w3.org/1999/xlink" x="0px" y="0px"
	 viewBox="0 0 240.2 61.8" enable-background="new 0 0 240.2 61.8" xml:space="preserve">
<path fill="#333333" d="M12.5,27.6c0,2,0,4.3-0.1,6.7l-0.1,3.1c0,0.5,0.5,0.8,1.6,0.8s2.2-0.1,3.2-0.3c1.1-0.2,1.8-0.5,2.1-0.7
	c0.3-0.3,0.5-0.6,0.5-1.1v-9.5c3.6-0.5,7.3-1.3,10.9-2.4v4.7c0,2,0.3,3.6,0.8,4.5c0.5,1,1.5,1.6,2.8,2c1.3,0.3,3.6,0.5,6.8,0.5
	c0.5,0,2.8-0.1,7-0.2c4.2-0.1,6.8-0.7,8-1.7s1.8-2,1.8-3c0-1-0.5-1.7-1.6-2.2c-1-0.5-1.8-1.3-2.2-2.5c-0.4-1.2-0.7-2.8-0.7-4.8
	c0-0.4-0.1-0.7-0.3-0.7c-0.2,0-0.4,0.2-0.5,0.7c-1,4-2.1,6.4-3.2,7.2C48.2,29.6,46,30,42.8,30c-2.2,0-3.6-0.2-4.2-0.5
	c-0.6-0.4-1-1-1-1.9v-5.9c2.3-0.9,6.9-2.9,13.9-6.2c1.8-0.9,2.9-1.3,3.3-1.4c1.1-0.1,1.6-0.4,1.6-0.8c0-0.4-0.7-1.2-2-2.3
	c-1.3-1.2-3.1-2.6-5.4-4.2c-3,3.6-6.8,6.9-11.5,10.1V7.6c1.2-0.4,1.9-0.9,1.9-1.3c0-0.4-0.5-0.8-1.6-1.1c-1.1-0.3-3.6-0.7-7.5-1.1
	c0.1,1.8,0.2,4,0.2,6.7v10.3c-3.9,2-7.5,3.5-10.9,4.7v-7.9c0.7-0.2,1.1-0.5,1.1-0.9c0-0.4-0.9-0.8-2.6-1.2c1.3-1.3,2.6-2.7,3.8-4.3
	c1.2-1.6,2.2-2.3,3-2.4c0.8,0,1.2-0.3,1.2-0.8c0-0.2-0.1-0.4-0.3-0.6c-0.2-0.2-1.3-0.8-3.1-1.7C21,5.3,19,4.5,16.8,3.7
	c-1.2,4.2-3.1,8.3-5.7,12.2C8.5,19.8,5.5,23.2,2,26.2c-0.4,0.4-0.7,0.6-0.7,0.8c0,0.1,0.1,0.2,0.2,0.2c0.2,0,0.4,0,0.6-0.1
	c0.2-0.1,1.5-0.8,3.7-2.1c2.3-1.3,4.4-2.7,6.5-4.2V27.6z M25.8,51.9c0,1.4,0,2.9-0.1,4.5l-0.1,2.2c0,0.4,0.1,0.6,0.3,0.7
	c0.2,0.1,0.8,0.1,1.8,0.1c1,0,2.1-0.1,3.2-0.4c1.1-0.3,1.8-0.6,2.1-0.8c0.3-0.3,0.5-0.6,0.5-0.9l-0.1-5.3v-7.4h23.2
	c1,0,1.4-0.3,1.4-1c0-0.7-1.1-1.9-3.2-3.7c-2.1-1.8-3.4-2.6-3.8-2.6c-0.2,0-0.6,0.4-1.2,1.2c-0.6,0.8-1.4,2.2-2.5,4.2H33.3v-3.9
	c1.1-0.5,1.6-0.9,1.6-1.4c0-0.9-3.1-1.4-9.2-1.7c0.1,0.6,0.1,2.9,0.1,7H5c-1,0-2-0.1-3-0.2l1.6,2.8c0.6-0.4,1.4-0.7,2.2-0.7h20.1
	V51.9z M93,17.8h-5.2c-2.2-1.1-4.5-1.9-6.9-2.6c0,0.6,0.1,2,0.1,4.3c-1.6-1.7-2.5-2.5-2.9-2.5c-0.5,0-1.4,1.1-2.6,3.4h-0.7V5.7
	c0.9-0.4,1.3-0.8,1.3-1.1c0-0.3-0.2-0.6-0.6-0.7c-0.4-0.2-1.3-0.4-2.8-0.6c-1.5-0.2-3.1-0.3-4.7-0.4c0.1,1.9,0.2,4.2,0.2,6.8v10.6
	h-3.6c-1,0-2-0.1-3-0.2l1.6,2.8c0.6-0.4,1.4-0.7,2.2-0.7h2.9v27.4c0,2,0,3.9-0.1,5.6l-0.1,2.5c0,0.4,0.2,0.7,0.5,0.7
	c1.2,0,2.3-0.1,3.4-0.4c1.1-0.2,1.8-0.5,2.2-0.8c0.4-0.3,0.6-0.6,0.6-1v-34H81v7.9c0,1.9,0,3.4-0.1,4.5l-0.1,3.5
	c0,0.3,0.2,0.5,0.5,0.5c1.1,0,2.3-0.2,3.4-0.5c1.2-0.3,1.8-0.6,2-0.8c0.2-0.2,0.3-0.5,0.3-0.9V33H93l-0.2,4.6c0,0.4,0.2,0.7,0.5,0.7
	c1.2,0,2.3-0.1,3.4-0.4c1.1-0.2,1.8-0.5,2.2-0.8c0.4-0.3,0.6-0.6,0.6-1V33h5.8v3.6c-1.4-0.2-2.6-0.3-3.5-0.3c0,0.6,0.1,2.1,0.1,4.7
	H79.7c-1,0-2-0.1-3-0.2l1.6,2.8c0.6-0.4,1.4-0.7,2.2-0.7h21.5v7.3c0,0.8-0.4,1.4-1.1,1.7c-0.8,0.3-2,0.5-3.6,0.5l-2.9-0.1
	c-0.6,0-0.9,0.1-0.9,0.2s0.2,0.3,0.5,0.4c1.7,0.4,3,0.8,3.8,1.4c0.8,0.6,1.3,1.4,1.4,2.3c0.1,1,0.3,1.6,0.6,1.8
	c0.3,0.3,0.8,0.4,1.6,0.4c0.8,0,1.9-0.2,3.2-0.5c1.3-0.3,2.3-0.7,2.9-1.2c0.6-0.5,1.1-1.2,1.3-2c0.2-0.8,0.4-2,0.4-3.4V43h8.5
	c0.7,0,1.1-0.3,1.1-0.8c0-0.5-0.8-1.5-2.4-2.9c-1.6-1.4-2.7-2.1-3.2-2.1c-0.5,0-1.6,1.3-3,3.8h-0.8v-2.5c0.5-0.3,0.7-0.5,0.7-0.7
	s-0.1-0.3-0.4-0.5c0.7-0.2,1.3-0.4,1.9-0.6c0.6-0.2,0.9-0.4,1.1-0.6c0.2-0.1,0.2-0.5,0.2-1l-0.1-6.1v-8.9c1.2-0.4,1.7-0.8,1.7-1.1
	c0-0.5-1-1.4-3.1-2.5c-2.1-1.2-3.4-1.8-4-1.8c-0.3,0-0.6,0.2-0.9,0.6c-0.3,0.4-0.7,1.2-1.3,2.4h-5.3v-4.7h17.6c0.6,0,1-0.3,1-0.8
	c0-0.6-1-1.6-2.9-3.2c-1.9-1.5-3-2.3-3.3-2.3c-0.2,0-0.5,0.2-0.9,0.7c-0.4,0.5-1.1,1.7-2.1,3.6h-9.4V5.5c1-0.5,1.5-0.9,1.5-1.2
	c0-0.3-0.2-0.6-0.7-0.8c-0.5-0.2-1.4-0.4-2.8-0.6c-1.4-0.2-3-0.3-4.7-0.4C93,4.6,93,7.4,93,10.9v0.2H81c-1,0-2-0.1-3-0.2l1.6,2.8
	c0.6-0.4,1.4-0.7,2.2-0.7H93V17.8z M87.2,24.4v-3.7c0.6-0.2,0.9-0.5,1-0.8H93v4.6H87.2z M105.3,19.8v4.6h-5.8v-4.6H105.3z
	 M105.3,26.3V31h-5.8v-4.7H105.3z M87.2,31v-4.7H93V31H87.2z M101.1,3.9c0,0.1,0.1,0.3,0.3,0.4c0.5,0.2,0.9,0.7,1.2,1.2
	c0.3,0.6,0.5,1.2,0.5,1.9v1c0,0.4,0,0.7,0.1,1c0.1,0.3,0.3,0.6,0.6,0.8c0.3,0.2,0.9,0.3,1.7,0.3c0.8,0,1.5-0.3,2.2-0.9
	c0.6-0.6,1-1.4,1-2.5c0-1.1-0.5-1.9-1.4-2.5c-0.9-0.6-2.6-0.9-5-0.9C101.6,3.7,101.1,3.7,101.1,3.9z M83.7,43.6
	c0,0.1,0.3,0.3,0.8,0.6c1.7,0.9,2.5,2.3,2.5,4c0,0.5,0,1-0.1,1.4c-0.1,0.4-0.1,0.7-0.1,0.9c0,0.8,0.3,1.5,0.8,2
	c0.6,0.5,1.4,0.8,2.4,0.8c1,0,1.9-0.4,2.6-1c0.7-0.7,1.1-1.6,1.1-2.7c0-1.1-0.4-2.2-1.2-3.2c-0.8-1-2.2-1.8-4-2.2
	c-1.8-0.5-3.2-0.7-4.1-0.7C83.9,43.4,83.7,43.4,83.7,43.6z M158.6,20.1c2.6,3.2,5.3,5.7,8.2,7.7c2.9,2,4.7,2.9,5.4,2.9
	c0.3,0,0.5-0.2,0.7-0.5c1.2-3.1,3.1-5.2,5.8-6.4c0.5-0.2,0.8-0.4,0.8-0.5c0-0.2-0.3-0.3-0.8-0.4c-5.4-1.1-10.3-2.9-14.6-5.3
	c-4.4-2.5-7.5-5.4-9.3-8.6c0.9-0.2,1.4-0.6,1.4-1.1c0-0.3-0.2-0.6-0.5-0.8c-0.3-0.2-1.5-0.7-3.5-1.3c-2-0.7-4.1-1.2-6.1-1.7
	c-1.9,5.8-4.9,11-8.9,15.8c-4,4.8-8.6,8.5-13.8,11.3c-0.8,0.4-1.1,0.8-1.1,1c0,0,0.1,0.1,0.2,0.1c0.5,0,2.1-0.5,4.7-1.6
	c2.6-1.1,5.3-2.4,8-4.1l1.3,2.2c0.6-0.4,1.4-0.7,2.2-0.7h8v8.5h-15.8c-1,0-2-0.1-3-0.2l1.6,2.8c0.6-0.4,1.4-0.7,2.2-0.7h15.1v16.1
	H126c-1,0-2-0.1-3-0.2l1.6,2.8c0.6-0.4,1.4-0.7,2.2-0.7h50.7c0.8,0,1.1-0.2,1.1-0.5c0-0.3-0.5-0.9-1.5-1.8c-1-0.9-2.1-1.8-3.4-2.8
	c-1.3-1-2-1.4-2.3-1.4c-0.2,0-0.4,0.1-0.5,0.2c-0.1,0.1-0.6,0.8-1.3,1.8c-0.8,1.1-1.3,1.9-1.6,2.5h-10.3c6.2-6.5,9.9-9.8,11.1-10
	c0.6-0.1,1-0.3,1-0.6c0-0.3-0.1-0.6-0.4-0.8c-0.3-0.2-1.2-0.7-2.8-1.6c-1.6-0.8-3.5-1.6-5.6-2.5c-1.3,5.5-2.8,10.7-4.7,15.4h-2.5
	V38.4h18.5c0.7,0,1.1-0.2,1.1-0.5s-0.2-0.6-0.5-1c-0.4-0.4-1.1-1-2.2-1.9c-1.1-0.9-2-1.6-2.8-2.1c-0.8-0.6-1.3-0.8-1.6-0.8
	c-0.3,0-0.6,0.1-0.8,0.4c-0.2,0.3-1.1,1.6-2.5,4h-9.2v-7.5c0.6-0.2,1-0.5,1.2-1h8.8c0.8,0,1.1-0.2,1.1-0.6c0-0.4-0.4-0.8-1.1-1.4
	l-3.1-2.2c-1.3-0.9-2.2-1.4-2.6-1.4c-0.3,0-0.6,0.3-1,0.8c-0.4,0.5-0.9,1.4-1.6,2.8h-17.8c-0.8,0-1.4,0-1.9-0.1
	c6.4-4,11.7-8.9,16.1-14.6c0.7-0.9,1.2-1.4,1.3-1.5C154.2,13.5,156,16.9,158.6,20.1z M131.3,40.9c0,0.1,0.5,0.6,1.4,1.3
	c0.9,0.7,1.7,1.6,2.2,2.6c0.5,1,0.8,2.2,0.8,3.6c0,0.4,0,0.9-0.1,1.5c-0.1,1.2,0.1,2.1,0.7,2.8c0.6,0.7,1.4,1,2.6,1s2.1-0.5,3-1.4
	c0.9-0.9,1.3-1.9,1.3-3.1c0-1.1-0.3-2.2-0.9-3.1c-0.6-0.9-1.5-1.8-2.8-2.5c-1.2-0.8-2.8-1.4-4.6-2c-1.8-0.6-3-0.9-3.4-0.9
	C131.4,40.7,131.3,40.7,131.3,40.9z M209.1,4.4c0.1,1.6,0.1,3.3,0.1,5.3v40.6c0,1.6,0,3.4-0.1,5.3l-0.1,2.8c0,0.3,0.2,0.5,0.5,0.5
	c1.2,0,2.3-0.1,3.4-0.4c1.1-0.3,1.8-0.5,2.2-0.7c0.3-0.2,0.5-0.6,0.5-1v-0.7c2.8-1.8,5.3-3.7,7.7-5.8c1.3,1.8,2.7,3.5,4.2,5
	c1.5,1.5,2.5,2.4,2.9,2.8c0.4,0.3,0.8,0.5,1.2,0.5s0.7-0.4,1.1-1.1c0.4-0.7,1.1-1.6,2.2-2.7c1.1-1,2.1-1.7,2.8-2s1.2-0.5,1.2-0.7
	c0-0.2-0.2-0.3-0.7-0.5c-4.2-1.8-7.7-3.8-10.4-6.1c2.2-3,4.1-6.7,5.6-11.3c0.3-0.9,0.6-1.6,0.8-2c0.2-0.4,0.7-0.7,1.4-0.8
	c0.7-0.1,1-0.5,1-1c0-0.5-1.2-1.4-3.4-2.7c-2.3-1.3-3.7-1.9-4.2-1.9c-0.2,0-0.5,0.2-0.8,0.5c-0.3,0.4-0.8,1.2-1.6,2.4h-11V9.8
	c0.9-0.2,1.4-0.6,1.4-1.1h8.9l-0.4,6.3c-0.1,1.2-0.4,2-1,2.3c-0.6,0.3-1.4,0.5-2.4,0.5c-1,0-1.8,0-2.5-0.1c-0.7,0-1,0-1,0.2
	c0,0.2,0.5,0.4,1.4,0.9c0.9,0.4,1.7,0.9,2.2,1.6c0.6,0.6,0.9,1.5,1.1,2.7c0.1,0.8,0.6,1.2,1.5,1.2c0.9,0,1.9-0.1,3.1-0.4
	c1.2-0.3,2.1-0.7,2.7-1.2c0.6-0.5,1-1.2,1.3-2c0.3-0.8,0.5-1.9,0.6-3.3l0.6-7.8c1.3-0.5,1.9-1,1.9-1.5s-1.1-1.4-3.4-2.7
	c-2.3-1.3-3.6-1.9-4-1.9c-0.4,0-0.8,0.3-1.1,0.8c-0.4,0.6-0.8,1.4-1.3,2.6h-9C214.4,5.7,212,4.9,209.1,4.4L209.1,4.4z M218.1,30.6h9
	c-0.7,4.4-1.7,8.2-2.9,11.5C221.4,38.9,219.4,35.1,218.1,30.6L218.1,30.6z M217,30.6c0.3,6.5,1.9,12.2,4.6,17
	c-1.7,3-3.7,5.5-6.1,7.5V30.6H217z M187,4.5c0,4.6,0.1,10.4,0.1,17.2c0,6.8-0.1,12.6-0.4,17.3c-0.3,4.7-0.8,8.4-1.6,11
	c-0.7,2.6-1.8,5-3.3,7.1c-0.4,0.5-0.6,0.9-0.6,1.1c0,0.2,0.1,0.3,0.2,0.3c0.4,0,1.8-1.2,4-3.7c2.2-2.5,4-5.4,5.3-8.7
	c1.3-3.3,2.1-7.4,2.5-12.2h5.9v15c0,0.9-0.4,1.6-1.3,1.9c-0.9,0.3-2.2,0.5-4,0.5h-1.2c-0.8,0-1.1,0.1-1.1,0.2c0,0.2,0.5,0.4,1.5,0.7
	c1,0.3,1.9,0.8,2.7,1.6c0.8,0.8,1.3,1.7,1.4,2.8c0.1,0.8,0.6,1.1,1.4,1.1s1.9-0.2,3.3-0.6c1.4-0.4,2.3-1,2.8-1.9
	c0.5-0.8,0.8-2.6,0.8-5.2V9.4c1.3-0.4,1.9-0.8,1.9-1.3c0-0.5-0.9-1.3-2.8-2.5c-1.9-1.2-3-1.8-3.4-1.8c-0.2,0-0.4,0.1-0.6,0.3
	c-0.2,0.2-0.5,0.6-1.1,1.3c-0.5,0.7-0.9,1.3-1.1,1.7h-4C192.3,6,189.8,5.1,187,4.5L187,4.5z M193.8,10.1c0-0.4,0.1-0.8,0.2-1.1h5
	v10.4h-5.3C193.8,15.8,193.8,12.7,193.8,10.1L193.8,10.1z M199.1,31.8h-5.8c0.2-3.5,0.3-6.9,0.4-10.4h5.4V31.8z"/>
</svg>
