<?xml version="1.0" encoding="utf-8"?>
<!-- Generator: Adobe Illustrator 18.0.0, SVG Export Plug-In . SVG Version: 6.00 Build 0)  -->
<!DOCTYPE svg PUBLIC "-//W3C//DTD SVG 1.1//EN" "http://www.w3.org/Graphics/SVG/1.1/DTD/svg11.dtd">
<svg version="1.1" id="图层_1" xmlns="http://www.w3.org/2000/svg" xmlns:xlink="http://www.w3.org/1999/xlink" x="0px" y="0px"
	 viewBox="0 0 21.2 78.5" enable-background="new 0 0 21.2 78.5" xml:space="preserve">
<path fill="#333333" d="M3.7,11c0,1.5-0.1,2.8-0.3,3.9s-0.6,2.1-1.2,3C2.1,18,2,18,2,18.1c0,0,0,0,0,0c0.1,0,0.4-0.3,1-0.9
	c0.6-0.6,1.1-1.3,1.4-2c0.4-0.7,0.6-1.6,0.7-2.6h1v1.6c0,0.7,0,1.1,0,1.4l0,0.6c0,0.1,0,0.2,0.1,0.3c0.1,0.1,0.2,0.1,0.3,0.1
	c0.7,0,1.2-0.1,1.4-0.4c0.3,0.2,0.6,0.6,0.7,1.2c0,0.2,0.1,0.3,0.3,0.3c0.2,0,0.4,0,0.8-0.1c0.3-0.1,0.6-0.2,0.7-0.3
	c0.1-0.1,0.2-0.3,0.2-0.6c0-0.2,0.1-0.6,0.1-1.2v-2.2h3.3v2.2c0,0.4,0,0.9,0,1.4l0,0.8c0,0.1,0,0.2,0.1,0.3c0.1,0,0.2,0,0.4,0
	c0.2,0,0.5-0.1,1-0.2c0.4-0.1,0.6-0.3,0.6-0.5l0-0.6c0-0.4,0-0.9,0-1.3v-2.2h2.6c0.4,0,0.5-0.1,0.5-0.2s-0.2-0.5-0.7-1
	c-0.5-0.5-0.8-0.7-0.9-0.7c-0.1,0-0.1,0-0.2,0.1c0,0-0.2,0.2-0.4,0.5c-0.2,0.3-0.4,0.5-0.5,0.7h-0.5v-2h2.2c0.3,0,0.4-0.1,0.4-0.3
	c0-0.2-0.2-0.5-0.7-0.9C17.6,9.2,17.4,9,17.2,9c-0.1,0-0.4,0.4-0.8,1.2h-0.3V8.5c0.3-0.1,0.5-0.2,0.5-0.4S16.5,8,16.3,7.9
	c0.9-0.2,1.4-0.6,1.6-1c0.2-0.4,0.3-1.5,0.6-3.4c0.4-0.1,0.6-0.2,0.6-0.4c0-0.2-0.3-0.5-1-0.9c-0.7-0.4-1.1-0.6-1.2-0.6
	c-0.1,0-0.2,0.1-0.3,0.3C16.4,2,16.2,2.3,16,2.6h-4.4c-0.3,0-0.6,0-0.9-0.1l0.5,0.8c0.2-0.1,0.4-0.2,0.6-0.2h0.9
	c-0.1,2.4-0.7,4-2,4.9V7.4c0.4-0.1,0.5-0.2,0.5-0.4c0-0.1,0-0.1-0.1-0.2c-0.1-0.1-0.2-0.2-0.6-0.4c-0.3-0.2-0.6-0.4-0.8-0.6
	C9.6,5.6,9.5,5.5,9.4,5.5C9.3,5.5,9,5.8,8.7,6.4H7.3c1-0.8,1.6-1.4,1.9-1.6c0.3-0.2,0.6-0.3,0.9-0.3l0.2,0c0.2,0,0.3,0,0.3-0.1
	c0.1-0.1,0.1-0.1,0.1-0.2c0-0.1,0-0.2-0.1-0.3c-0.1-0.1-0.3-0.3-0.6-0.5C9.8,3.1,9.4,2.8,9.2,2.7C8.9,2.5,8.7,2.4,8.6,2.4
	c-0.2,0-0.4,0.4-0.9,1.2H6.1c0.4-0.5,0.6-0.8,0.7-1c0.1-0.2,0.3-0.3,0.4-0.3c0.2,0,0.3-0.1,0.3-0.2c0-0.1,0-0.1-0.1-0.2
	C7.4,1.7,7.1,1.6,6.5,1.5S5.4,1.2,4.7,1.1C4.5,2.4,4.2,3.6,3.8,4.5C3.4,5.4,2.9,6.4,2.1,7.4C2,7.5,2,7.6,2,7.6c0,0,0,0.1,0,0.1
	c0,0,0.1,0,0.1-0.1c0.1,0,0.5-0.5,1.4-1.3C3.6,7.9,3.7,9.5,3.7,11z M14.7,3.5c0.2-0.1,0.2-0.2,0.2-0.3h1.5c-0.1,0.6-0.1,1.2-0.2,1.6
	c-0.1,0.5-0.2,0.8-0.3,0.9C15.9,5.9,15.7,6,15.3,6c-0.3,0-0.8,0-1.5-0.1C14.2,5.3,14.5,4.5,14.7,3.5L14.7,3.5z M7.8,4.2
	C7.5,5,7.2,5.8,6.9,6.4H5.4C5.1,6.3,4.7,6.1,4,5.9c0.7-0.7,1.2-1.3,1.6-1.8H7.8z M14,7.6c0,0.3,0,1.1,0,2.6h-1.4
	c0.2-0.3,0.4-0.6,0.5-0.9c0.1-0.3,0.2-0.4,0.4-0.5c0.1-0.1,0.2-0.1,0.2-0.2c0-0.1-0.1-0.1-0.2-0.2c-0.1,0-0.8-0.2-2-0.5
	c1-0.6,1.7-1.2,2.2-1.9c0.5,0.2,0.9,0.4,1.1,0.5c0.2,0.2,0.4,0.4,0.4,0.8c0,0.1,0,0.2,0,0.3C15,7.6,14.6,7.6,14,7.6L14,7.6z
	 M5.4,7.8c0-0.4,0.1-0.7,0.2-0.8h0.7v2.2H5.4L5.4,7.8z M8,7.3C8.2,7.2,8.3,7.1,8.3,7h0.6v2.2H8V7.3z M10.8,11.7V8.3
	c0,0,0.3-0.1,0.7-0.4C11.4,9.2,11.2,10.4,10.8,11.7L10.8,11.7z M6.3,12h-1c0-0.7,0.1-1.5,0.1-2.2h0.9V12z M8.9,12H8V9.8h0.9V12z
	 M14.1,12.8h-3.3v-0.4c0.8-0.7,1.3-1.3,1.5-1.6h1.8V12.8z M8,14.2v-1.6h0.9v2.6c0,0.3-0.1,0.5-0.2,0.5c-0.1,0.1-0.4,0.1-0.7,0.1
	C8,15.2,8,14.6,8,14.2L8,14.2z M10.3,30.2h-3c-0.3,0-0.6,0-0.9-0.1L6.9,31c0.2-0.1,0.4-0.2,0.6-0.2h2.7c-0.2,1.6-0.7,2.9-1.5,4
	c-0.8,1.1-2.2,2-4.2,3c-0.2,0.1-0.3,0.1-0.3,0.2c0,0,0,0.1,0.1,0.1c0.2,0,0.9-0.2,2.1-0.7c1.2-0.5,2.2-1,3-1.6
	c0.8-0.6,1.4-1.3,1.8-2c0.4-0.8,0.7-1.7,0.9-2.8h0.4c0.1,1.5,0.4,2.7,0.9,3.7c0.5,1,1.2,1.7,2,2.3c0.8,0.6,1.3,0.8,1.4,0.8
	c0.1,0,0.1-0.1,0.2-0.2c0.1-0.4,0.4-0.7,0.6-1c0.3-0.3,0.7-0.5,1.3-0.8c0.1-0.1,0.2-0.1,0.2-0.2c0,0-0.1-0.1-0.2-0.1
	c-2.9-0.5-4.9-2.1-5.9-4.6h5.7c0.2,0,0.3-0.1,0.3-0.2c0-0.1-0.3-0.5-0.8-1c-0.5-0.5-0.9-0.8-1-0.8c-0.2,0-0.4,0.3-0.8,1v-3.7
	c0.5-0.1,0.8-0.3,0.8-0.5c0-0.1-0.1-0.2-0.3-0.4c-0.2-0.2-0.5-0.4-1-0.7c-0.5-0.3-0.8-0.5-0.9-0.5c-0.1,0-0.2,0.1-0.4,0.2
	c-0.1,0.1-0.3,0.4-0.6,0.9h-1.5l0.1-1.7c0-0.8,0.1-1.2,0.1-1.3c0-0.1,0.1-0.1,0.3-0.2c0.1-0.1,0.2-0.1,0.2-0.2
	c0-0.1-0.1-0.2-0.2-0.3c-0.1-0.1-0.4-0.2-0.9-0.3c-0.5-0.1-1.1-0.2-1.7-0.2c0,1.5,0,2.9,0,4.2H8.7c-0.3,0-0.6,0-0.9-0.1L8.3,26
	c0.2-0.1,0.4-0.2,0.6-0.2h1.5C10.4,27.6,10.4,29.1,10.3,30.2L10.3,30.2z M12.3,30.2c0.1-0.6,0.2-2,0.3-4.4h1.7v4.4H12.3z M5.6,23.2
	c-0.7-0.4-1.6-0.6-2.7-0.6c-0.1,0-0.2,0-0.2,0c0,0,0.1,0.1,0.2,0.2c0.4,0.2,0.8,0.5,1,0.9C4,24,4.1,24.5,4.1,25c0,0.3,0,0.5,0.1,0.6
	c0.1,0.1,0.2,0.3,0.4,0.4c0.2,0.1,0.4,0.2,0.6,0.2c0.4,0,0.7-0.1,1-0.4c0.3-0.3,0.4-0.6,0.4-1C6.6,24.1,6.3,23.6,5.6,23.2z
	 M8.3,23.7C8.3,23.6,8.3,23.6,8.3,23.7c-0.1-0.1-0.2,0-0.3,0.2l-2.3,4.4c-0.4,0.8-0.8,1.4-1.2,1.8c-0.4,0.4-0.9,0.6-1.5,0.6
	c-0.2,0-0.3,0-0.5,0c-0.2,0-0.2,0-0.2,0.1c0,0.1,0,0.1,0.1,0.1c0.6,0.2,1,0.4,1.2,0.6c0.2,0.2,0.3,0.5,0.3,0.8
	c0,0.4-0.1,1.1-0.4,2.1c-0.1,0.3-0.1,0.6-0.1,0.8c0,0.4,0.1,0.8,0.4,1c0.3,0.3,0.6,0.4,1,0.4c0.4,0,0.8-0.1,1-0.4
	c0.3-0.3,0.4-0.6,0.4-1.1c0-0.2,0-0.5-0.1-0.8c-0.2-0.8-0.3-1.6-0.3-2.5s0.2-1.9,0.6-3.1l1.8-4.8C8.3,23.8,8.3,23.7,8.3,23.7z
	 M7.9,41.2c0,0,0.1,0.1,0.3,0.2c0.4,0.1,0.7,0.4,0.9,0.7c0.2,0.3,0.3,0.7,0.3,1.3c0,0.3,0.1,0.5,0.3,0.7c0.2,0.2,0.4,0.3,0.7,0.3
	c0.5,0,0.8-0.2,1.2-0.5s0.5-0.7,0.5-1.1c0-0.4-0.2-0.8-0.7-1.2c-0.5-0.4-1.3-0.5-2.4-0.5C8.2,41.1,7.9,41.1,7.9,41.2L7.9,41.2z
	 M7.4,50.7c-0.2,1.4-0.7,2.6-1.4,3.6c-0.7,1-1.9,2-3.5,2.9c-0.3,0.2-0.4,0.3-0.4,0.3c0,0,0,0,0.1,0c0.2,0,0.9-0.2,2-0.7
	c1.1-0.5,2.1-1.1,2.9-1.8c0.8-0.7,1.4-1.6,1.9-2.6c0.5-1,0.8-2.3,1-3.7h3.9c0,1-0.1,2-0.2,3.2c-0.1,1.2-0.2,1.9-0.3,2.1
	c-0.1,0.3-0.2,0.4-0.4,0.6c-0.2,0.1-0.5,0.2-0.9,0.3c-0.4,0.1-1,0.1-1.9,0.1c-0.3,0-0.5,0-0.5,0.1c0,0.1,0.1,0.1,0.4,0.2
	c1.2,0.1,1.8,0.6,1.9,1.4c0,0.3,0.2,0.5,0.6,0.5c0.4,0,0.8-0.1,1.2-0.3c0.4-0.2,0.8-0.4,1-0.6c0.3-0.3,0.4-0.6,0.5-0.9
	c0.1-0.3,0.2-1.1,0.4-2.3c0.1-1.2,0.2-2.6,0.3-4c0.5-0.1,0.7-0.3,0.7-0.5c0-0.2-0.4-0.5-1.1-0.9c-0.7-0.4-1.2-0.6-1.4-0.6
	c-0.2,0-0.4,0.3-0.7,1H10c0.1-0.8,0.2-1.4,0.2-1.6s0.1-0.5,0.3-0.6c0.2-0.1,0.3-0.2,0.3-0.3s0-0.1-0.1-0.2c0,0-0.3-0.1-0.7-0.2h8.7
	c0.3,0,0.4-0.1,0.4-0.2c0-0.2-0.4-0.6-1.3-1.2c-0.8-0.6-1.3-0.9-1.5-0.9c-0.1,0-0.1,0-0.2,0.1c-0.1,0.1-0.2,0.3-0.3,0.5
	c-0.2,0.3-0.4,0.6-0.6,1.1H3.1c-0.3,0-0.6,0-0.9-0.1l0.5,0.8c0.2-0.1,0.4-0.2,0.6-0.2h4.4C7.7,47.5,7.6,49.3,7.4,50.7z M5.6,62.8
	C5.5,62.5,5.3,62.3,5,62c-0.3-0.3-0.4-0.4-0.5-0.4c0,0-0.1,0-0.1,0.1c0,0,0,0.1,0.1,0.3c0.1,0.1,0.1,0.3,0.1,0.4
	c0,0.5-0.3,0.9-0.9,1.4c-0.3,0.2-0.4,0.5-0.4,0.8c0,0.2,0.1,0.4,0.2,0.6c0.2,0.2,0.4,0.2,0.7,0.2c0.5,0,0.8-0.1,1.2-0.4
	c0.3-0.3,0.5-0.7,0.5-1.2c0-0.1,0-0.2,0-0.3h3.3c-0.3,0.7-0.8,1.4-1.3,2.2H3.5c-0.3,0-0.6,0-0.8-0.1L3,66.3c0.2-0.1,0.4-0.1,0.7-0.1
	h3.7c-0.3,0.4-0.9,1.1-1.6,1.9c1.6,0,3.1,0.2,4.4,0.6c-1.6,0.9-3.8,1.4-6.5,1.7c-0.2,0-0.3,0.1-0.3,0.1c0,0.1,0.1,0.1,0.2,0.2
	c0.1,0,0.6,0,1.4,0c1.8,0,3.3-0.2,4.6-0.5c0,0.2,0,0.6,0,1.2v0.3H3.4c-0.3,0-0.6,0-0.9-0.1L3,72.5c0.2-0.1,0.4-0.2,0.6-0.2h4.1
	c-1.1,1.8-2.9,3.3-5.3,4.3c-0.2,0.1-0.3,0.1-0.3,0.2c0,0,0,0,0.1,0c0.4,0,1.1-0.2,2.1-0.5c1-0.3,2-0.8,2.9-1.4
	c0.9-0.6,1.7-1.2,2.2-1.9v1.6c0,0.6,0,1.1,0,1.6l0,0.7c0,0.2,0,0.3,0.1,0.3c0.1,0,0.2,0.1,0.5,0.1c0.3,0,0.6,0,0.9-0.1
	c0.3-0.1,0.6-0.2,0.6-0.3c0.1-0.1,0.1-0.2,0.1-0.4l0-0.8c0-0.3,0-0.7,0-1.2v-2.4h0c0.3,0.9,0.7,1.6,1.3,2.3c0.6,0.6,1.4,1.2,2.5,1.7
	c1,0.5,1.7,0.8,1.8,0.8c0.1,0,0.2-0.1,0.2-0.2c0-0.3,0.2-0.7,0.4-1c0.3-0.3,0.5-0.5,0.8-0.6c0.3-0.1,0.4-0.2,0.4-0.3
	c0-0.1-0.1-0.2-0.4-0.2c-2-0.3-3.5-0.6-4.3-1c-0.9-0.4-1.5-0.9-2-1.5h6.2c0.3,0,0.4-0.1,0.4-0.2c0-0.1,0-0.1-0.1-0.2
	c-0.1-0.1-0.3-0.3-0.6-0.5c-0.3-0.2-0.6-0.4-0.9-0.6c-0.3-0.2-0.5-0.2-0.6-0.2c-0.1,0-0.2,0-0.3,0c-0.1,0-0.2,0.2-0.3,0.4
	c-0.1,0.2-0.2,0.5-0.3,0.6h-4.3v-1.1c0.3-0.1,0.4-0.2,0.4-0.3c0-0.1-0.1-0.2-0.3-0.3c-0.2-0.1-0.6-0.1-1.2-0.2
	c0.5-0.2,1-0.4,1.5-0.6c0.8,0.3,1.5,0.7,2,1.2c0.5,0.4,0.9,0.7,1.2,0.7c0.3,0,0.6-0.1,0.8-0.4c0.2-0.2,0.3-0.5,0.3-0.7
	c0-0.4-0.2-0.7-0.6-1.1c-0.4-0.3-1.1-0.6-2.1-0.8c0.5-0.4,0.8-0.9,1.1-1.5c0.2-0.1,0.3-0.3,0.4-0.5h3.3c0.3,0,0.5-0.1,0.5-0.2
	c0-0.1-0.3-0.4-0.9-0.9c-0.6-0.4-1-0.6-1.1-0.6c-0.2,0-0.3,0.1-0.5,0.2c-0.1,0.2-0.3,0.5-0.6,0.9h-5.7c0.3-0.4,0.5-0.7,0.7-0.8
	c0.1-0.1,0.3-0.2,0.4-0.2c0.2,0,0.2-0.1,0.2-0.2c0-0.2-0.7-0.6-2-1h5.8c-0.2,0.5-0.4,0.9-0.6,1.4c0,0.1-0.1,0.1-0.1,0.2
	s0,0.1,0.1,0.1s0.1,0,0.2-0.1c0.8-0.7,1.6-1,2.6-1c0.2,0,0.3,0,0.5,0c0.2,0,0.3,0,0.5-0.1c0.1-0.1,0.2-0.1,0.2-0.3
	c0-0.2-0.4-0.6-1.2-1.1c-0.8-0.5-1.3-0.7-1.5-0.7c-0.1,0-0.2,0.1-0.3,0.2c-0.1,0.1-0.3,0.4-0.5,0.8h-3.4c0.3-0.2,0.5-0.5,0.5-0.9
	c0-0.8-0.9-1.2-2.6-1.2c-0.8,0-1.2,0-1.2,0.1c0,0.1,0.1,0.1,0.4,0.2c0.2,0.1,0.4,0.3,0.6,0.5c0.2,0.2,0.3,0.5,0.4,0.8
	c0,0.3,0.1,0.5,0.2,0.5H5.6z M11.5,67.8c-0.9-0.1-1.8-0.2-2.9-0.2c0.4-0.3,0.8-0.8,1.2-1.4h2.8C12.4,66.8,12,67.3,11.5,67.8
	L11.5,67.8z"/>
</svg>
