<?xml version="1.0" encoding="utf-8"?>
<!-- Generator: Adobe Illustrator 18.0.0, SVG Export Plug-In . SVG Version: 6.00 Build 0)  -->
<!DOCTYPE svg PUBLIC "-//W3C//DTD SVG 1.1//EN" "http://www.w3.org/Graphics/SVG/1.1/DTD/svg11.dtd">
<svg version="1.1" id="图层_1" xmlns="http://www.w3.org/2000/svg" xmlns:xlink="http://www.w3.org/1999/xlink" x="0px" y="0px"
	 viewBox="0 0 55.5 22.5" enable-background="new 0 0 55.5 22.5" xml:space="preserve">
<path fill="#6E6E6E" d="M7.2,15.3c0.1-0.1,0.2-0.3,0.2-0.5c0-0.2-0.1-0.4-0.2-0.6c-0.2-0.2-0.4-0.2-0.6-0.2c-0.3,0-0.6,0.1-0.8,0.3
	c-0.2,0.2-0.3,0.5-0.3,0.8c0,0.7,0.3,1.2,0.9,1.7c0.6,0.4,1.4,0.7,2.4,0.7c1,0,1.9-0.2,2.7-0.5c0.8-0.3,1.6-0.8,2.3-1.5
	c0.8-0.7,1.7-2.1,2.8-4.1c0.3-0.5,0.5-1,0.7-1.2c0.8-1.4,1.5-2.4,2.2-2.9c0.6-0.5,1.4-0.8,2.3-0.8c0.2,0,0.5,0,0.8,0
	c0.4,0,0.6,0,0.7,0c0.4,0,0.8-0.1,1-0.2c0.2-0.1,0.3-0.3,0.3-0.5c0-0.2-0.1-0.3-0.2-0.4c-0.1-0.1-0.3-0.1-0.5-0.1
	c-0.4,0-1.1,0-2.2-0.1c-1.1-0.1-2-0.1-2.6-0.1c-3.5,0-6.3,0.5-8.4,1.4c-2.1,0.9-3.2,2.2-3.2,3.6c0,0.7,0.3,1.3,0.8,1.8
	c0.5,0.5,1.2,0.7,2,0.7c0.7,0,1.4-0.2,2.1-0.5c0.7-0.3,1.2-0.8,1.6-1.4c0.2-0.3,0.4-0.7,0.5-1.1c0.1-0.4,0.2-0.7,0.2-1.1
	c0-0.1,0-0.3,0-0.4s0-0.2-0.1-0.4l-0.1,0c0,0,0,0,0,0.1c0.1,0.2,0.1,0.4,0.1,0.5c0,0.9-0.4,1.7-1.2,2.4c-0.8,0.6-1.7,0.9-2.9,0.9
	c-0.8,0-1.5-0.2-2-0.5c-0.5-0.4-0.8-0.8-0.8-1.4c0-1.1,0.8-2,2.5-2.6c1.7-0.6,4.1-0.9,7.2-0.9c0.4,0,0.8,0,1.4,0c0.5,0,1.2,0,1.9,0
	l0,0c-1.1,0.3-2.1,0.7-2.9,1.3c-0.8,0.6-1.6,1.4-2.2,2.5c-0.3,0.5-0.7,1.2-1.2,2.1c-0.9,1.6-1.6,2.7-2.2,3.3c-0.5,0.6-1,1-1.6,1.3
	c-0.6,0.3-1.2,0.4-1.8,0.4c-0.7,0-1.2-0.2-1.6-0.5c-0.4-0.3-0.6-0.7-0.6-1.3l0,0C6.9,15.5,7.1,15.4,7.2,15.3z M25,15.9
	c-0.8,0.8-1.4,1.2-1.7,1.2c-0.1,0-0.2,0-0.3-0.1c-0.1-0.1-0.1-0.2-0.1-0.4c0-0.2,0.1-0.4,0.2-0.6c0.1-0.3,0.3-0.5,0.5-0.8l1-1.4
	c0.2-0.3,0.4-0.6,0.5-0.9c0.1-0.3,0.2-0.6,0.2-0.8c0-0.4-0.1-0.6-0.3-0.8c-0.2-0.2-0.5-0.3-0.8-0.3c-0.5,0-1.2,0.3-2,0.9
	c-0.8,0.6-1.5,1.4-2.3,2.4l-0.1,0c0.5-0.7,0.9-1.3,1.3-1.9c0.4-0.6,0.7-1.1,0.9-1.5l3.5-5.6l-1.9,0.1l-7.1,12l1.9-0.1
	c0.3-0.7,0.6-1.4,1-1.9c0.4-0.6,0.8-1.1,1.2-1.7c0.6-0.7,1.2-1.2,1.7-1.7c0.5-0.4,1-0.6,1.2-0.6c0.1,0,0.2,0,0.3,0.1
	c0.1,0.1,0.1,0.2,0.1,0.4c0,0.1,0,0.3-0.1,0.5c-0.1,0.2-0.2,0.4-0.4,0.7l-1.1,1.5c-0.2,0.3-0.3,0.5-0.4,0.8
	c-0.1,0.3-0.2,0.5-0.2,0.8c0,0.4,0.1,0.7,0.3,1c0.2,0.2,0.5,0.4,0.8,0.4c0.6,0,1.2-0.4,2.1-1.1c0.8-0.7,1.9-2,3.2-3.7l-0.1-0.1
	C26.8,14,25.8,15.1,25,15.9z M32.7,12.6c-1,1.3-2,2.4-2.9,3.2c-0.9,0.8-1.6,1.2-2,1.2c-0.1,0-0.2,0-0.3-0.1
	c-0.1-0.1-0.1-0.2-0.1-0.3c0-0.2,0-0.4,0.1-0.6c0.1-0.2,0.2-0.5,0.4-0.8l2.6-4.2l-1.8,0.1l-2,3.3c-0.2,0.4-0.4,0.7-0.5,1
	c-0.1,0.3-0.2,0.6-0.2,0.8c0,0.4,0.1,0.6,0.3,0.9c0.2,0.2,0.5,0.3,0.8,0.3c0.6,0,1.5-0.4,2.4-1.2C30.6,15.3,31.6,14.2,32.7,12.6
	L32.7,12.6z M30.8,7.5c-0.2,0.2-0.3,0.4-0.3,0.7c0,0.2,0.1,0.5,0.3,0.6c0.2,0.2,0.4,0.3,0.7,0.3c0.2,0,0.5-0.1,0.6-0.3
	c0.2-0.2,0.3-0.4,0.3-0.6c0-0.3-0.1-0.5-0.3-0.7c-0.2-0.2-0.4-0.3-0.6-0.3C31.2,7.3,30.9,7.3,30.8,7.5z M38.5,15.8
	c-0.8,0.8-1.4,1.2-1.7,1.2c-0.1,0-0.3,0-0.3-0.1c-0.1-0.1-0.1-0.2-0.1-0.4c0-0.2,0.1-0.4,0.2-0.6c0.1-0.2,0.3-0.5,0.5-0.8l1-1.5
	c0.2-0.3,0.4-0.6,0.5-0.9c0.1-0.3,0.2-0.5,0.2-0.7c0-0.4-0.1-0.6-0.3-0.8c-0.2-0.2-0.5-0.3-0.8-0.3c-0.5,0-1.2,0.3-2,0.9
	c-0.8,0.6-1.5,1.4-2.3,2.4l-0.1,0l2.3-3.1l-1.9,0.1l-3.6,6.1l1.9-0.1c0.3-0.7,0.6-1.3,1-1.9c0.4-0.6,0.7-1.1,1.2-1.6
	c0.6-0.7,1.1-1.2,1.7-1.7c0.6-0.4,1-0.6,1.2-0.6c0.1,0,0.2,0,0.3,0.1c0.1,0.1,0.1,0.2,0.1,0.3c0,0.2,0,0.3-0.1,0.6
	c-0.1,0.2-0.2,0.4-0.4,0.7l-1.1,1.5c-0.2,0.3-0.3,0.5-0.4,0.8c-0.1,0.3-0.1,0.5-0.1,0.8c0,0.4,0.1,0.7,0.3,1
	c0.2,0.2,0.5,0.4,0.8,0.4c0.6,0,1.2-0.4,2.1-1.1c0.8-0.7,1.9-2,3.2-3.7l-0.1-0.1C40.3,13.9,39.3,15.1,38.5,15.8z M40.3,17.2
	c0.2-0.5,0.5-1.1,1-1.8c0.5-0.7,1-1.4,1.7-2.1c0.5-0.5,0.9-0.9,1.3-1.2c0.4-0.3,0.8-0.4,1-0.4c0.2,0,0.3,0.1,0.5,0.2
	c0.1,0.1,0.2,0.3,0.2,0.5c0,0.4-0.2,0.7-0.5,1.1c-0.3,0.3-0.7,0.5-1.2,0.6c-0.2,0-0.3-0.1-0.4-0.1c-0.1,0-0.2,0-0.4,0
	c-0.2,0-0.4,0-0.5,0.1c-0.1,0.1-0.2,0.2-0.2,0.3c0,0.1,0,0.1,0.1,0.2c0.1,0,0.1,0.1,0.2,0.1c0.1,0,0.2,0,0.3-0.1
	c0.1,0,0.4-0.1,0.7-0.3c0,0,0,0,0,0.1c0,0,0,0.1,0,0.1c0,0.1-0.1,0.4-0.4,0.9c-0.3,0.5-0.4,0.9-0.4,1.2c0,0.3,0.1,0.6,0.3,0.8
	c0.2,0.2,0.5,0.3,0.9,0.3c0.6,0,1.4-0.4,2.4-1.2c0.9-0.8,2-2,3.1-3.5L50,12.7c-1,1.3-1.9,2.4-2.8,3.2c-0.9,0.8-1.5,1.2-1.8,1.2
	c-0.1,0-0.2,0-0.3-0.1c-0.1-0.1-0.1-0.2-0.1-0.3c0-0.2,0.1-0.4,0.2-0.7c0.1-0.3,0.2-0.5,0.2-0.7c0-0.3-0.1-0.5-0.2-0.7
	c-0.1-0.2-0.3-0.4-0.6-0.5c1-0.2,1.8-0.5,2.3-0.8c0.5-0.3,0.7-0.7,0.7-1.1c0-0.3-0.1-0.5-0.3-0.7c-0.2-0.2-0.5-0.3-0.8-0.3
	c-0.6,0-1.3,0.3-2.1,0.9c-0.8,0.6-1.6,1.4-2.4,2.5l-0.1-0.1c0.6-1,1.1-1.7,1.5-2.3s0.7-1.1,0.9-1.5l3.3-5.3l-1.9,0.1l-7.2,12
	L40.3,17.2z"/>
</svg>
