<?xml version="1.0" encoding="utf-8"?>
<!-- Generator: Adobe Illustrator 18.0.0, SVG Export Plug-In . SVG Version: 6.00 Build 0)  -->
<!DOCTYPE svg PUBLIC "-//W3C//DTD SVG 1.1//EN" "http://www.w3.org/Graphics/SVG/1.1/DTD/svg11.dtd">
<svg version="1.1" xmlns="http://www.w3.org/2000/svg" xmlns:xlink="http://www.w3.org/1999/xlink" x="0px" y="0px"
	 viewBox="0 0 89.2 104" enable-background="new 0 0 89.2 104" xml:space="preserve">
<g id="图层_1">
</g>
<g id="图层_2">
	<g>
		<rect x="4.1" y="9.5" fill="#E50020" width="9" height="3"/>
		<linearGradient id="SVGID_1_" gradientUnits="userSpaceOnUse" x1="3.9848" y1="96.2858" x2="14.6259" y2="96.2858">
			<stop  offset="0" style="stop-color:#D2609F"/>
			<stop  offset="1" style="stop-color:#E50020"/>
		</linearGradient>
		<polygon fill="url(#SVGID_1_)" points="14.6,94.6 11,94.6 11,91 7.6,91 7.6,94.6 4,94.6 4,98 7.6,98 7.6,101.6 11,101.6 11,98 
			14.6,98 		"/>
		<path fill="#CBCBCB" d="M27.8,28.7l7.3,16.8l0.1,0.2h-0.2h-0.2h-3.2h-0.1h-0.1l-0.1,0l-5.6-13l0-0.1l0-0.1l1.5-3.8l0.2-0.5
			L27.8,28.7z M6.5,56.8L6.5,56.8l0,15.5v0.3h0h2.9h0.4v-0.3V56.8H9.4H6.5z M46,2.5h-0.2v0.2v15.7v0.2H46h2.9h0.2v-0.2V2.7V2.5h-0.2
			H46z M51.4,9.4L49.6,10l2-0.2c0,0,1.6-0.2,2-0.3c0.5-0.1,1-0.4,1.4-0.6c0.4-0.3,0.8-0.6,1.1-1.1c0.3-0.4,0.4-1,0.4-1.6
			c0-0.8-0.2-1.4-0.5-1.9c-0.4-0.5-0.8-0.9-1.4-1.2c-0.5-0.3-1.2-0.5-1.8-0.6c-0.7-0.1-1.4-0.2-2.2-0.2c0,0,1.8,0.3,2.1,2.2
			c0.1,0.7,0.2,1.5,0.2,2c0,0.4,0,0.8-0.1,1.2C52.5,9,51.5,9.4,51.4,9.4z M57.2,16.6c0,0-0.2-2.6-0.2-2.6c-0.1-0.8-0.1-1.3-0.4-1.8
			c-0.3-0.5-0.6-0.9-1-1.1c-0.4-0.3-0.9-0.5-1.5-0.6c-0.2,0-0.4-0.1-0.7-0.1c-0.5-0.1-1.2-0.1-1.7-0.1c0,0,1.4,0,1.7,2.1
			c0.1,1,0.3,3.4,0.3,3.9c0.1,0.5,0.2,0.9,0.4,1.3c0.2,0.4,0.6,0.7,1.1,1c0.5,0.3,1.1,0.4,2,0.4c0.4,0,0.8,0,1-0.1
			c0.1,0,0.3-0.1,0.4-0.1C57.3,18.9,57.2,17.2,57.2,16.6z M36.6,2.6L36.6,2.6h-0.2l-0.1,0.2c0,0.1-0.1,0.2-0.2,0.2
			c-0.1,0-0.2,0.1-0.4,0.1c-0.2,0-0.5,0-0.8-0.1c0,0-1.2-0.3-2-0.4l0,0c1.2,0.6,2.3,2,2.8,3.1c0.2,0.5,0.4,1,0.6,1.4l0.1,0.2h0.2
			h0.2l0-0.2V2.8V2.6H36.6z M29.8,18.7c0,0-0.6-0.3-1.2-0.8c0,0,0,0,0,0c0,0,0,0,0,0c-0.2-0.2-0.4-0.4-0.6-0.7c0,0,0-0.1-0.1-0.1
			c0,0,0-0.1-0.1-0.1c-0.1-0.1-0.1-0.2-0.2-0.4c0,0,0-0.1,0-0.1c0,0,0,0,0-0.1c-0.2-0.5-0.4-1-0.5-1.7c-0.2-1-0.3-2.3-0.3-3.9
			c0-1.2,0-2.3,0.1-3.3c0-0.5,0.1-1,0.3-1.5l0,0c0,0,0.1-0.4,0.4-1c0,0,0,0,0,0c0,0,0,0,0,0c0.3-0.7,0.9-1.6,1.9-2.3
			C28,3,26.4,4.1,26,4.4c-0.1,0.1-0.1,0.1-0.2,0.2c-0.8,0.7-1.5,1.6-2,2.7c-0.5,1-0.8,2.2-0.8,3.5c0,1.2,0.2,2.3,0.7,3.3
			c0.5,1,1.1,1.9,1.9,2.6c0.6,0.6,1.3,1,2,1.4C28.1,18.3,28.8,18.5,29.8,18.7z M36.7,13.9L36.7,13.9h-0.2l0,0.2
			c-0.1,0.6-0.3,1.1-0.6,1.6c-0.3,0.6-0.6,1.1-1.1,1.5c-1,1.1-2.5,1.6-2.5,1.6c0.7,0.1,1.3,0,1.8-0.1c0,0,0,0,0,0
			c0.4-0.1,0.7-0.2,1-0.3c0.3-0.1,0.5-0.1,0.7-0.1c0.2,0,0.3,0,0.4,0.1c0.1,0,0.1,0.1,0.2,0.3l0.1,0.1h0.1h0.1h0.2v-0.2v-4.4v-0.2
			H36.7z M3.3,29.8H3.1V30v15.7v0.2h0.2h2.9h0.2v-0.2V30v-0.2H6.2H3.3z M11,33.9c-0.1,0.4-0.2,0.8-0.4,1.2c-0.6,1.8-2.5,2.1-2.5,2.1
			s2.2,0.5,2.9,3.4l0.4,1.7v-1.8V34v-2L11,33.9z M14.4,29.8h-3.9l0,0c0.1,0,2.1,0.9,2.9,2.2c0.8,1.2,1.2,2.9,1.2,2.9v-1.4V30v-0.2
			H14.4z M10.6,45.9h4.7h0.2v-0.2v-4.6v-1.8c0,0-0.3,1.7-0.8,3C13.4,45.4,10.6,45.9,10.6,45.9z M49.7,29.9v15.8h3.4V29.9H49.7z
			 M54.3,29.9c0,0,1.5,0.3,2,0.8c0.3,0.3,0.6,0.6,0.9,1.1c0.3,0.5,0.4,1,0.6,1.7l0.3,1.4v-0.8v-0.8v-3.6h0H54.3z M46.3,30.7
			c-0.3,0.3-0.6,0.7-0.8,1.1c-0.3,0.5-0.4,1.1-0.6,1.8l-0.2,1.5v-0.8v-0.8v-3.6H48h0.2c0,0-0.6,0.1-0.8,0.2
			C47,30.2,46.6,30.4,46.3,30.7z M45.2,31.8C45.2,31.8,45.2,31.7,45.2,31.8C45.2,31.8,45.2,31.8,45.2,31.8c-0.1,0.1-0.1,0.1-0.1,0.1
			C45.2,31.9,45.2,31.8,45.2,31.8z M68.5,29.8h-0.2V30v15.7v0.2h0.2h2.9h0.2v-0.2V30v-0.2h-0.2H68.5z M52.1,64.5V72
			c0,0.1,0,0.2-0.1,0.3h3.7c-0.1-0.1-0.1-0.2-0.1-0.3v-9.2v-0.1l0,0c0,0-0.1,0-0.1,0c-0.2,0-0.3-0.1-0.4-0.2c0,0-5.6-5.7-5.6-5.8
			h-4.9c0,0,0,0.1,0.1,0.1C44.7,57,52.1,64.2,52.1,64.5z M29.6,56.8v15.8H33V56.8H29.6z M34.2,56.8c0,0,1.5,0.3,2,0.8
			c0.3,0.3,0.6,0.6,0.9,1.1c0.3,0.5,0.4,1,0.6,1.7l0.3,1.4v-0.8v-0.8v-3.6h0H34.2z M26.2,57.6c-0.3,0.3-0.6,0.7-0.8,1.1
			c-0.3,0.5-0.4,1.1-0.6,1.8l-0.2,1.5v-0.8v-0.8v-3.6h3.4h0.2c0,0-0.6,0.1-0.8,0.2C26.9,57.1,26.5,57.3,26.2,57.6z M25.1,58.6
			C25.1,58.6,25.1,58.6,25.1,58.6C25.1,58.6,25.1,58.6,25.1,58.6c-0.1,0.1-0.1,0.1-0.1,0.1C25.1,58.7,25.1,58.7,25.1,58.6z
			 M84.2,29.1L84.2,29H84h-3.1h-0.3l0.1,0.3l6.4,16.9l0.2,0.5l0.2-0.5l1.6-4l0-0.1l0-0.1L84.2,29.1z"/>
	</g>
</g>
</svg>
