<?xml version="1.0" encoding="utf-8"?>
<!-- Generator: Adobe Illustrator 18.0.0, SVG Export Plug-In . SVG Version: 6.00 Build 0)  -->
<!DOCTYPE svg PUBLIC "-//W3C//DTD SVG 1.1//EN" "http://www.w3.org/Graphics/SVG/1.1/DTD/svg11.dtd">
<svg version="1.1" xmlns="http://www.w3.org/2000/svg" xmlns:xlink="http://www.w3.org/1999/xlink" x="0px" y="0px"
	 viewBox="0 0 69.1 104" enable-background="new 0 0 69.1 104" xml:space="preserve">
<g id="图层_1">
</g>
<g id="图层_2">
	<g>
		<rect x="3.1" y="8.4" fill="#18B7CD" width="9.4" height="4"/>
		<linearGradient id="SVGID_1_" gradientUnits="userSpaceOnUse" x1="2.4378" y1="95.5987" x2="13.0946" y2="95.5987">
			<stop  offset="0" style="stop-color:#00ADBA"/>
			<stop  offset="1" style="stop-color:#0080CB"/>
		</linearGradient>
		<polygon fill="url(#SVGID_1_)" points="13.1,93.9 9.5,93.9 9.5,90.3 6.1,90.3 6.1,93.9 2.4,93.9 2.4,97.3 6.1,97.3 6.1,100.9 
			9.5,100.9 9.5,97.3 13.1,97.3 		"/>
		<path fill="#6D6E6E" d="M26.2,1.7h0.2v0.2v15.8v0.2h-0.2h-2.9h-0.2v-0.2V1.9V1.7h0.2H26.2z M29.7,10.4c0.1,0.1,0.2,0.2,0.3,0.3
			c0.2,0.3,0.4,0.7,0.6,1.1c0.1,0.3,0.2,0.7,0.3,1.1l0.4,1.7v-1.8V6.2v-2l-0.4,2c-0.1,0.4-0.2,0.8-0.4,1.2c-0.2,0.4-0.4,0.8-0.6,1
			c0,0-0.1,0.1-0.1,0.1c-0.6,0.9-1.8,0.9-1.8,0.9C28.9,9.5,29.7,10.4,29.7,10.4L29.7,10.4z M34.4,5.7l0-0.2V1.9V1.7h-0.2h-3.9
			c0,0,1.4,0.3,2.3,1.1C33.6,3.7,34.4,5.7,34.4,5.7z M52.5,30.2c0.3,0.4,0.7,0.9,1,1.4c0.3,0.6,0.8,1.6,0.8,1.6l0-4.2v-0.2
			c0,0-0.2,0.5-1.1,0.5c-0.2,0-0.4,0-0.6-0.1c0,0-0.1,0-0.1,0c-0.3-0.1-1.3-0.5-1.9-0.4C51.3,29,52,29.7,52.5,30.2z M45.9,43.6
			c-0.3-0.3-0.6-0.6-0.8-1c-0.9-1.2-1.5-2.7-1.5-2.7v0.2v4.7V45c0,0,0.4-0.6,1.1-0.5c0.1,0,0.4,0,0.7,0.1c0,0,1.6,0.4,2.2,0.3
			C47.7,44.9,46.7,44.4,45.9,43.6z M47.9,29c-1.1,0.1-1.9,0.6-2.4,1c-0.4,0.4-0.8,0.9-1.1,1.4C44.2,32,44,32.5,44,33.2
			c0,0.8,0.1,1.5,0.4,2.1c0.3,0.5,0.6,1,1.1,1.4c0.4,0.4,0.9,0.7,1.5,0.9c0.5,0.2,1.1,0.4,1.7,0.6l1.6,0.5l0.1,0
			c0.5,0.2,1,0.4,1.5,0.6c0.4,0.2,0.8,0.5,1,0.9c0.3,0.3,0.4,0.8,0.4,1.3c0,0.3-0.1,0.6-0.2,1c-0.1,0.2-0.3,0.6-0.3,0.6
			c-0.4,1-1.7,1.7-1.7,1.7c0.9-0.1,1.5-0.4,2-0.7c0.2-0.1,0.4-0.3,0.6-0.5c0.6-0.5,1-1.1,1.3-1.8c0.3-0.7,0.5-1.4,0.5-2.1
			c0-0.8-0.1-1.4-0.4-1.9c-0.3-0.5-0.7-1-1.1-1.3c-0.5-0.4-1-0.7-1.6-0.9c-0.6-0.2-1.2-0.5-1.8-0.6c-0.6-0.2-1.2-0.4-1.8-0.6
			c-0.6-0.2-1.1-0.4-1.5-0.6c-0.4-0.2-0.8-0.5-1.1-0.9c-0.3-0.3-0.4-0.8-0.4-1.3c0-0.2,0-0.4,0.1-0.5l0,0
			C45.9,31.1,46.1,29.8,47.9,29z M44.9,16.8c0,0,0.1,0,0.1,0.1c0.2,0.1,0.4,0.2,0.6,0.3c0.6,0.3,1.4,0.6,2.2,0.6
			c-1.5-0.5-2.2-2.2-2.2-2.2l0,0c-0.2-0.5-0.4-1.1-0.5-1.9c-0.2-1-0.3-2.3-0.3-3.9c0-1.2,0.1-2.3,0.2-3.3c0.1-1,0.3-1.8,0.7-2.6
			c0,0,0-0.1,0-0.1c0.4-1.2,2-2.1,2-2.1c-1.3,0.2-2.5,0.9-2.9,1.1c-0.3,0.2-0.7,0.5-1,0.8c-0.8,0.7-1.5,1.6-2,2.7
			c-0.5,1-0.8,2.2-0.8,3.5c0,1.2,0.2,2.3,0.7,3.3c0.5,1,1.1,1.9,1.9,2.6C44,16.2,44.5,16.5,44.9,16.8z M55.4,3.6
			c-0.4-0.3-0.8-0.6-1.2-0.9c-0.3-0.1-1.4-0.7-3-1c0,0,1.7,0.7,2.2,1.9c0,0,0.2,0.3,0.2,0.4c0.3,0.7,0.5,1.6,0.6,2.5
			c0.1,1,0.1,2,0.1,3c0,1.2,0,2.3-0.1,3.3c-0.1,1-0.3,1.9-0.6,2.6c-0.1,0.2-0.3,0.6-0.3,0.6c-0.5,0.9-1.7,1.5-2,1.6l0,0
			c0.2,0,1.1-0.1,2.3-0.6c0.7-0.4,1.4-0.9,2-1.5c0.8-0.8,1.4-1.7,1.9-2.7c0.5-1,0.7-2.1,0.7-3.2c0-1.3-0.2-2.5-0.7-3.5
			C56.9,5.2,56.2,4.4,55.4,3.6z M4.4,45h0.2v-0.2V29v-0.2H4.4H1.5H1.2V29v15.8V45h0.2H4.4z M6.9,35.8l-1.9,0.6l2-0.2
			c0,0,1.6-0.2,2-0.3c0.5-0.1,1-0.4,1.5-0.6c0.4-0.3,0.8-0.6,1.1-1.1c0.3-0.4,0.4-1,0.4-1.6c0-0.8-0.2-1.4-0.5-1.9
			c-0.4-0.5-0.8-0.9-1.4-1.2c-0.5-0.3-1.2-0.5-1.8-0.6c-0.7-0.1-1.4-0.2-2.2-0.2c0,0,1.8,0.3,2.1,2.2c0.1,0.7,0.2,1.5,0.2,2
			c0,0.4,0,0.8-0.1,1.2C8.1,35.4,7,35.8,6.9,35.8z M10.6,44.9c0.5,0.3,1.1,0.4,2,0.4c0.4,0,0.8,0,1-0.1c0.1,0,0.3-0.1,0.4-0.1
			c-1.2,0.1-1.3-1.6-1.4-2.2c0,0-0.2-2.6-0.2-2.6c-0.1-0.8-0.1-1.3-0.4-1.8c-0.3-0.5-0.6-0.9-1-1.2c-0.4-0.3-0.9-0.5-1.5-0.6
			c-0.2,0-0.4-0.1-0.7-0.1c-0.5-0.1-1.2-0.1-1.7-0.1c0,0,1.4,0,1.7,2.1c0.1,1,0.3,3.4,0.3,3.9c0.1,0.5,0.2,0.9,0.4,1.3
			C9.8,44.3,10.2,44.7,10.6,44.9z M25.9,45v-0.2V29.1v-0.2h-0.2h-2.9h-0.2v0.2v15.8V45h0.2h2.9H25.9z M30.9,41.4v-1.8V33v-2l-0.4,2
			c-0.1,0.4-0.2,0.8-0.4,1.2c-0.6,1.8-2.5,2.1-2.5,2.1s2.2,0.5,2.9,3.4L30.9,41.4z M29.9,28.8c0.1,0,2.1,0.9,2.9,2.2
			c0.8,1.2,1.2,2.9,1.2,2.9v-1.4v-3.5v-0.2h-0.2L29.9,28.8L29.9,28.8z M35,45v-0.2v-4.6v-1.8c0,0-0.3,1.7-0.8,3
			c-1.3,3.1-4.1,3.6-4.1,3.6h4.7H35z M32.8,57.5h-0.2v0.2v15.6v0.2h0.2h2.9H36v-0.2V57.7v-0.2h-0.2H32.8z M23.1,57.5h-0.2v0.2v15.6
			v0.2h0.2H26h0.2v-0.2V57.7v-0.2H26H23.1z M48.3,73.4h3.4V57.7h-3.4V73.4z M53.1,57.7c0,0,1.5,0.3,2,0.8c0.3,0.3,0.6,0.6,0.9,1.1
			c0.2,0.5,0.4,1,0.6,1.7l0.3,1.4V62v-0.8v-3.6h0H53.1z M46.8,57.7H47c0,0-0.6,0.1-0.8,0.2c-0.4,0.1-0.8,0.3-1.1,0.6
			c-0.3,0.3-0.6,0.7-0.8,1.1c-0.3,0.5-0.4,1-0.6,1.7l-0.2,1.4V62v-0.8v-3.6H46.8z M44.1,59.4C44,59.5,44,59.5,44.1,59.4
			C44,59.6,44,59.6,44,59.6C44,59.6,44,59.5,44.1,59.4C44.1,59.5,44.1,59.5,44.1,59.4z M12.4,57.8c0,0-0.9-0.2-1.8-0.3l0,0
			c0.1,0,0.8,0.6,1.4,1.2c0,0,0.5,0.6,0.5,0.6c0.8,0.9,1.7,2.8,1.7,2.8v-0.2v-4.2v-0.2c0,0-0.2,0.4-1.1,0.5
			C12.9,58,12.7,57.9,12.4,57.8z M5,71.3C5,71.2,4.9,71.1,4.9,71c-0.2-0.4-0.3-0.8-0.4-1.3c-0.2-0.9-0.3-2.1-0.3-3.4v-2
			c0-0.8,0.1-1.7,0.2-2.5c0.1-0.8,0.3-1.5,0.7-2.2c0,0,0.1-0.1,0.1-0.1c0.5-1.1,2.1-2,2.1-2c-1.2,0.2-2.4,0.8-2.8,1
			c-0.4,0.3-0.8,0.5-1.1,0.9c-0.8,0.7-1.5,1.6-2,2.7c-0.5,1-0.8,2.2-0.8,3.5c0,1.2,0.2,2.3,0.7,3.3c0.5,1,1.1,1.9,1.9,2.6
			c0.6,0.6,1.3,1,2.1,1.4c0.6,0.3,1.4,0.6,2.2,0.6C7.3,73.5,5.9,73.2,5,71.3z M12.2,67.5H12v0.2v1c0,0.7,0,1.3-0.1,1.9
			c-0.1,0.9-0.5,1.7-0.5,1.7c-0.4,0.9-1.6,1.3-1.6,1.3c0.8,0.1,1.6-0.1,1.6-0.1l0,0c0.3-0.1,0.5-0.2,0.7-0.3l1-0.5
			c0.3-0.1,0.6-0.2,1-0.2c0.9,0.1,1.2,0.5,1.2,0.5v-0.2v-5.1v-0.2H15H12.2z M68.8,28.8h-2.9h-0.2v0.2v15.7V45h0.2h2.9h0.2v-0.2V29.1
			v-0.2H68.8z"/>
	</g>
</g>
</svg>
