<?xml version="1.0" encoding="utf-8"?>
<!-- Generator: Adobe Illustrator 18.0.0, SVG Export Plug-In . SVG Version: 6.00 Build 0)  -->
<!DOCTYPE svg PUBLIC "-//W3C//DTD SVG 1.1//EN" "http://www.w3.org/Graphics/SVG/1.1/DTD/svg11.dtd">
<svg version="1.1" xmlns="http://www.w3.org/2000/svg" xmlns:xlink="http://www.w3.org/1999/xlink" x="0px" y="0px"
	 viewBox="0 0 78.6 104" enable-background="new 0 0 78.6 104" xml:space="preserve">
<g id="图层_1">
</g>
<g id="图层_2">
	<g>
		<g>
			<rect x="3.1" y="9" fill="#F8E79D" width="9.4" height="4"/>
		</g>
		<polygon fill="#F8E79D" points="13.1,94.6 9.5,94.6 9.5,91 6.1,91 6.1,94.6 2.4,94.6 2.4,98 6.1,98 6.1,101.6 9.5,101.6 9.5,98 
			13.1,98 		"/>
		<path fill="#CBCBCB" d="M11.6,72.5L0.2,56.2L0,55.9h0.4H4h0.1L4.2,56L12,67.2l0,0.1v0.1v5.1v0.7L11.6,72.5z M66.3,29h-0.2v0.2V45
			v0.2h0.2h2.9h0.2V45V29.3V29h-0.2H66.3z M74,33.2c-0.1,0.4-0.3,0.8-0.4,1.2c-0.6,1.8-2.5,2.1-2.5,2.1s2.2,0.5,2.9,3.4l0.4,1.7
			v-1.8v-6.6v-2L74,33.2z M77.4,29h-3.9l0,0c0.1,0,2.1,0.9,2.9,2.2c0.8,1.2,1.2,2.9,1.2,2.9v-1.4v-3.5V29H77.4z M73.7,45.2h4.7h0.2
			V45v-4.6v-1.8c0,0-0.3,1.7-0.8,3C76.5,44.8,73.7,45.2,73.7,45.2z M45.3,54.9h-0.2v0.2v15.8v0.2h0.2h2.9h0.2v-0.2V55.1v-0.2h-0.2
			H45.3z M53,59c-0.1,0.4-0.3,0.8-0.4,1.2c-0.6,1.8-2.5,2.1-2.5,2.1s2.2,0.5,2.9,3.4l0.4,1.7v-1.8v-6.6v-2L53,59z M56.4,54.9h-3.9
			l0,0c0.1,0,2.1,0.9,2.9,2.2c0.8,1.2,1.2,2.9,1.2,2.9v-1.4v-3.5v-0.2H56.4z M52.7,71.1h4.7h0.2v-0.2v-4.6v-1.8c0,0-0.3,1.7-0.8,3
			C55.5,70.6,52.7,71.1,52.7,71.1z M26,18.6l0.2,0v-0.2V2.6V2.4l-0.2,0l-2.9,0l-0.2,0v0.2v15.8v0.2l0.2,0L26,18.6z M37.1,7.6
			c-0.3-0.8-0.7-1.6-1.2-2.2c-0.5-0.6-1.1-1.1-1.8-1.5c-0.7-0.4-1.4-0.7-2.1-0.9c-0.7-0.2-1.5-0.4-2.2-0.5c-0.2,0-0.4,0-0.5-0.1
			c0,0,3,0.7,3.9,3.5c0,0,0,0.1,0,0.1c0.2,0.5,0.3,0.9,0.4,1.5c0.1,1,0.2,2.1,0.2,3.3c0,0.5,0,1-0.1,1.6c0,0.6-0.1,1.1-0.3,1.7
			c-0.1,0.6-0.5,1.4-0.7,1.7c-1,2.2-4.2,2.9-4.2,2.9c0.5,0,1-0.1,1.5-0.1c0.7-0.1,1.4-0.3,2.1-0.5c0.7-0.2,1.4-0.5,2-0.9
			c0.7-0.4,1.2-0.9,1.7-1.5c0.5-0.6,0.9-1.3,1.2-2.2c0.3-0.8,0.5-1.8,0.5-2.9C37.5,9.4,37.4,8.4,37.1,7.6z M1.6,45.2H5
			c-0.1-0.1-0.1-0.2-0.1-0.3V29.3c0-0.1,0-0.2,0.1-0.3H1.6c0,0.1,0.1,0.2,0.1,0.3v15.6C1.7,45.1,1.6,45.2,1.6,45.2z M8.2,45.2h6.7
			v-4.9C13.8,42.9,11.3,44.7,8.2,45.2z M55.6,29.5c-0.2,0-0.5,0-0.7-0.1c0,0-0.9-0.2-1.8-0.3l0,0c0.1,0,0.8,0.6,1.4,1.2
			c0,0,0.5,0.6,0.5,0.6c0.8,0.9,1.7,2.8,1.7,2.8v-0.2v-4.2v-0.2C56.7,29.1,56.5,29.5,55.6,29.5z M47.5,42.9
			c-0.1-0.1-0.1-0.2-0.1-0.3c-0.2-0.4-0.3-0.8-0.4-1.3c-0.2-0.9-0.3-2.1-0.3-3.4v-2c0-0.8,0.1-1.7,0.2-2.5c0.1-0.8,0.3-1.5,0.7-2.2
			c0,0,0.1-0.1,0.1-0.1c0.5-1.1,2.1-2,2.1-2c-1.2,0.2-2.4,0.8-2.8,1c-0.4,0.3-0.8,0.5-1.1,0.9c-0.8,0.7-1.5,1.6-2,2.7
			c-0.5,1-0.8,2.2-0.8,3.5c0,1.2,0.2,2.3,0.7,3.3c0.5,1,1.1,1.9,1.9,2.6c0.6,0.6,1.3,1,2.1,1.4c0.6,0.3,1.4,0.6,2.2,0.6
			C49.8,45.1,48.4,44.8,47.5,42.9z M57.5,39.1h-2.8h-0.2v0.2v1c0,0.7,0,1.3-0.1,1.9c-0.1,0.9-0.5,1.7-0.5,1.7
			c-0.4,0.9-1.6,1.3-1.6,1.3c0.8,0.1,1.6-0.1,1.6-0.1l0,0c0.3-0.1,0.5-0.2,0.7-0.3l1-0.5c0.3-0.1,0.6-0.2,1-0.2
			c0.9,0.1,1.2,0.5,1.2,0.5v-0.2v-5.1v-0.2H57.5z M49.9,2.4h-0.2v0.2v15.7v0.2h0.2h2.9H53v-0.2V2.6V2.4h-0.2H49.9z M27.5,29h-0.2
			v0.2V45v0.2h0.2h2.9h0.2V45V29.3V29h-0.2H27.5z M35,54.9L35,54.9h-0.2L34.7,55c0,0.1-0.1,0.2-0.2,0.2c-0.1,0-0.2,0.1-0.4,0.1
			c-0.2,0-0.5,0-0.8-0.1c0,0-1.2-0.3-2-0.4l0,0c1.2,0.6,2.3,2,2.8,3.1c0.2,0.5,0.4,1,0.6,1.5l0.1,0.2H35h0.2l0-0.2v-4.3v-0.2H35z
			 M28.2,71c0,0-0.6-0.3-1.2-0.8c0,0,0,0,0,0c0,0,0,0,0,0c-0.2-0.2-0.4-0.4-0.6-0.7c0,0,0-0.1-0.1-0.1c0,0,0-0.1-0.1-0.1
			c-0.1-0.1-0.1-0.2-0.2-0.4c0,0,0-0.1,0-0.1c0,0,0,0,0-0.1c-0.2-0.5-0.4-1-0.5-1.7c-0.2-1-0.3-2.3-0.3-3.9c0-1.2,0-2.3,0.1-3.3
			c0-0.5,0.1-1,0.3-1.5l0,0c0,0,0.1-0.4,0.4-1c0,0,0,0,0,0c0,0,0,0,0,0c0.3-0.7,0.9-1.6,1.9-2.3c-1.5,0.3-3.1,1.5-3.5,1.7
			c-0.1,0.1-0.1,0.1-0.2,0.2c-0.8,0.7-1.5,1.6-2,2.7c-0.5,1-0.8,2.2-0.8,3.5c0,1.2,0.2,2.3,0.7,3.3c0.5,1,1.1,1.9,1.9,2.6
			c0.6,0.6,1.3,1,2,1.4C26.5,70.6,27.2,70.8,28.2,71z M35.1,66.2L35.1,66.2h-0.2l0,0.2c-0.1,0.6-0.3,1.1-0.6,1.6
			c-0.3,0.6-0.6,1.1-1.1,1.5c-1,1.1-2.5,1.6-2.5,1.6c0.7,0.1,1.3,0,1.8-0.1c0,0,0,0,0,0c0.4-0.1,0.7-0.2,1-0.3
			c0.3-0.1,0.5-0.1,0.7-0.1c0.2,0,0.3,0,0.4,0.1c0.1,0,0.1,0.1,0.2,0.3l0.1,0.1H35h0.1h0.2v-0.2v-4.4v-0.2H35.1z"/>
	</g>
</g>
</svg>
