<?xml version="1.0" encoding="utf-8"?>
<!-- Generator: Adobe Illustrator 18.0.0, SVG Export Plug-In . SVG Version: 6.00 Build 0)  -->
<!DOCTYPE svg PUBLIC "-//W3C//DTD SVG 1.1//EN" "http://www.w3.org/Graphics/SVG/1.1/DTD/svg11.dtd">
<svg version="1.1" xmlns="http://www.w3.org/2000/svg" xmlns:xlink="http://www.w3.org/1999/xlink" x="0px" y="0px"
	 viewBox="0 0 55.6 104" enable-background="new 0 0 55.6 104" xml:space="preserve">
<g id="图层_1">
	<g>
		<path fill="#CBCBCB" d="M9.2,29.6h0.2v0.2v15.7v0.2H9.2H6.3H6.1v-0.2V29.8v-0.2h0.2H9.2z M46.5,29.7L46.5,29.7l-0.2-0.1h-3.5h-0.4
			l0.2,0.4L54,46.2l0.4,0.6V46v-5v-0.1l0-0.1L46.5,29.7z M54.5,5.6c0.2,0.5,0.4,1,0.6,1.5l0.1,0.2h0.2h0.2l0-0.2V2.7V2.5h-0.2h-0.1
			h-0.2L55,2.6c0,0.1-0.1,0.2-0.2,0.2c-0.1,0-0.2,0.1-0.4,0.1c-0.2,0-0.5,0-0.8-0.1c0,0-1.2-0.3-2-0.4l0,0C52.9,3.1,54,4.5,54.5,5.6
			z M44.3,16.6c0.6,0.6,1.3,1,2,1.4c0.5,0.2,1.2,0.5,2.2,0.6c0,0-0.6-0.3-1.2-0.8c0,0,0,0,0,0c0,0,0,0,0,0c-0.2-0.2-0.4-0.4-0.6-0.7
			c0,0,0-0.1-0.1-0.1c0,0,0-0.1-0.1-0.1c-0.1-0.1-0.1-0.2-0.2-0.4c0,0,0-0.1,0-0.1c0,0,0,0,0-0.1c-0.2-0.5-0.4-1-0.5-1.7
			c-0.2-1-0.3-2.3-0.3-3.9c0-1.2,0-2.3,0.1-3.3c0-0.5,0.1-1,0.3-1.5l0,0c0,0,0.1-0.4,0.4-1c0,0,0,0,0,0c0,0,0,0,0,0
			c0.3-0.7,0.9-1.6,1.9-2.3c-1.5,0.3-3.1,1.5-3.5,1.7c-0.1,0.1-0.1,0.1-0.2,0.2c-0.8,0.7-1.5,1.6-2,2.7c-0.5,1-0.8,2.2-0.8,3.5
			c0,1.2,0.2,2.3,0.7,3.3C42.9,14.9,43.5,15.8,44.3,16.6z M55.4,13.8L55.4,13.8h-0.2l0,0.2c-0.1,0.6-0.3,1.1-0.6,1.6
			c-0.3,0.6-0.6,1.1-1.1,1.5c-1,1.1-2.5,1.6-2.5,1.6c0.7,0.1,1.3,0,1.8-0.1c0,0,0,0,0,0c0.4-0.1,0.7-0.2,1-0.3
			c0.3-0.1,0.5-0.1,0.7-0.1c0.2,0,0.3,0,0.4,0.1c0.1,0,0.1,0.1,0.2,0.3l0.1,0.1h0.1h0.1h0.2v-0.2V14v-0.2H55.4z M13.8,59.8
			c0.2,0.5,0.4,1,0.6,1.5l0.1,0.2h0.2h0.2l0-0.2v-4.3v-0.2h-0.2h-0.1h-0.2l-0.1,0.2c0,0.1-0.1,0.2-0.2,0.2c-0.1,0-0.2,0.1-0.4,0.1
			c-0.2,0-0.5,0-0.8-0.1c0,0-1.2-0.3-2-0.4l0,0C12.2,57.3,13.3,58.7,13.8,59.8z M6.5,71.9C6.5,71.9,6.5,71.9,6.5,71.9
			c-0.2-0.2-0.5-0.5-0.6-0.7c0,0,0-0.1-0.1-0.1c0,0,0-0.1-0.1-0.1c-0.1-0.1-0.1-0.2-0.2-0.4c0,0,0-0.1,0-0.1c0,0,0,0,0-0.1
			c-0.2-0.5-0.4-1-0.5-1.7c-0.2-1-0.3-2.3-0.3-3.9c0-1.2,0-2.3,0.1-3.3c0-0.5,0.1-1,0.3-1.5l0,0c0,0,0.1-0.4,0.4-1c0,0,0,0,0,0
			c0,0,0,0,0,0c0.3-0.7,0.9-1.6,1.9-2.3C6,57.1,4.3,58.2,4,58.5c-0.1,0.1-0.1,0.1-0.2,0.2c-0.8,0.7-1.5,1.6-2,2.7
			c-0.5,1-0.8,2.2-0.8,3.5c0,1.2,0.2,2.3,0.7,3.3c0.5,1,1.1,1.9,1.9,2.6c0.6,0.6,1.3,1,2,1.4c0.5,0.2,1.2,0.5,2.2,0.6
			C7.8,72.8,7.2,72.5,6.5,71.9C6.5,71.9,6.5,71.9,6.5,71.9z M14.6,68h-0.2l0,0.2c-0.1,0.6-0.3,1.1-0.6,1.6c-0.3,0.6-0.6,1.1-1.1,1.5
			c-1,1.1-2.5,1.6-2.5,1.6c0.7,0.1,1.3,0,1.8-0.1c0,0,0,0,0,0c0.4-0.1,0.7-0.2,1-0.3c0.3-0.1,0.5-0.1,0.7-0.1c0.2,0,0.3,0,0.4,0.1
			c0.1,0,0.1,0.1,0.2,0.3l0.1,0.1h0.1h0.1h0.2v-0.2v-4.4V68H14.6L14.6,68z M22.7,29.6h-0.2v0.2v15.7v0.2h0.2h2.9h0.2v-0.2V29.8v-0.2
			h-0.2H22.7z M30.8,42.2v-1.8v-6.6v-2l-0.4,2c-0.1,0.4-0.2,0.8-0.4,1.2c-0.6,1.8-2.5,2.1-2.5,2.1s2.2,0.5,2.9,3.4L30.8,42.2z
			 M32.8,31.8c0.8,1.2,1.2,2.9,1.2,2.9v-1.4v-3.5v-0.2h-0.2h-3.9l0,0C30,29.6,32,30.5,32.8,31.8z M30,45.8h4.7h0.2v-0.2V41v-1.8
			c0,0-0.3,1.7-0.8,3C32.8,45.3,30,45.8,30,45.8z M22.7,56.7h-0.2v0.2v15.7v0.2h0.2h2.9h0.2v-0.2V56.9v-0.2h-0.2H22.7z M30.8,69.3
			v-1.8v-6.6v-2l-0.4,2c-0.1,0.4-0.2,0.8-0.4,1.2c-0.6,1.8-2.5,2.1-2.5,2.1s2.2,0.5,2.9,3.4L30.8,69.3z M32.8,58.9
			c0.8,1.2,1.2,2.9,1.2,2.9v-1.4v-3.5v-0.2h-0.2h-3.9l0,0C30,56.7,32,57.5,32.8,58.9z M30,72.9h4.7h0.2v-0.2v-4.6v-1.8
			c0,0-0.3,1.7-0.8,3C32.8,72.4,30,72.9,30,72.9z M31.6,3.9c0.3,0.4,0.7,0.9,1,1.4c0.3,0.6,0.8,1.6,0.8,1.6l0-4.2V2.5
			c0,0-0.2,0.5-1.1,0.5c-0.2,0-0.4,0-0.6-0.1c0,0-0.1,0-0.1,0c-0.3-0.1-1.3-0.5-1.9-0.4C30.4,2.7,31.2,3.3,31.6,3.9z M25.1,17.2
			c-0.3-0.3-0.6-0.6-0.8-1c-0.9-1.2-1.5-2.7-1.5-2.7v0.2v4.7v0.2c0,0,0.4-0.6,1.1-0.5c0.1,0,0.4,0,0.7,0.1c0,0,1.6,0.4,2.2,0.3
			C26.8,18.6,25.8,18.1,25.1,17.2z M24.6,10.3c0.4,0.4,0.9,0.7,1.5,0.9c0.5,0.2,1.1,0.4,1.7,0.6l1.6,0.5l0.1,0
			c0.5,0.2,1,0.4,1.5,0.6c0.4,0.2,0.8,0.5,1,0.9c0.3,0.3,0.4,0.8,0.4,1.3c0,0.3-0.1,0.6-0.2,1c-0.1,0.2-0.3,0.6-0.3,0.6
			c-0.4,1-1.7,1.7-1.7,1.7c0.9-0.1,1.5-0.4,2-0.7c0.2-0.1,0.4-0.3,0.6-0.5c0.6-0.5,1-1.1,1.3-1.8c0.3-0.7,0.5-1.4,0.5-2.1
			c0-0.8-0.1-1.4-0.4-1.9c-0.3-0.5-0.7-1-1.1-1.3c-0.4-0.4-1-0.7-1.6-0.9c-0.6-0.2-1.2-0.5-1.8-0.6c-0.6-0.2-1.2-0.4-1.8-0.6
			c-0.6-0.2-1.1-0.4-1.5-0.6c-0.4-0.2-0.8-0.5-1.1-0.9C25.1,6.2,25,5.8,25,5.3c0-0.2,0-0.4,0.1-0.5l0,0c0,0,0.2-1.3,2-2.1
			c-1.1,0.1-1.9,0.6-2.4,1c-0.4,0.4-0.8,0.9-1.1,1.4c-0.3,0.6-0.4,1.2-0.4,1.8c0,0.8,0.1,1.5,0.4,2.1C23.8,9.4,24.2,9.9,24.6,10.3z"
			/>
		<linearGradient id="SVGID_1_" gradientUnits="userSpaceOnUse" x1="3.0772" y1="10.5238" x2="12.4549" y2="10.5238">
			<stop  offset="0" style="stop-color:#FCCF00"/>
			<stop  offset="1" style="stop-color:#EF8200"/>
		</linearGradient>
		<rect x="3.1" y="8.9" fill="url(#SVGID_1_)" width="9.4" height="3.3"/>
		<linearGradient id="SVGID_2_" gradientUnits="userSpaceOnUse" x1="2.4421" y1="96.2824" x2="13.09" y2="96.2824">
			<stop  offset="0" style="stop-color:#FCCF00"/>
			<stop  offset="1" style="stop-color:#EF8200"/>
		</linearGradient>
		<polygon fill="url(#SVGID_2_)" points="13.1,94.6 9.5,94.6 9.5,91 6.1,91 6.1,94.6 2.4,94.6 2.4,98 6.1,98 6.1,101.6 9.5,101.6 
			9.5,98 13.1,98 		"/>
	</g>
</g>
<g id="图层_2">
</g>
</svg>
