<?xml version="1.0" encoding="utf-8"?>
<!-- Generator: Adobe Illustrator 18.0.0, SVG Export Plug-In . SVG Version: 6.00 Build 0)  -->
<!DOCTYPE svg PUBLIC "-//W3C//DTD SVG 1.1//EN" "http://www.w3.org/Graphics/SVG/1.1/DTD/svg11.dtd">
<svg version="1.1" xmlns="http://www.w3.org/2000/svg" xmlns:xlink="http://www.w3.org/1999/xlink" x="0px" y="0px"
	 viewBox="0 0 100.7 104" enable-background="new 0 0 100.7 104" xml:space="preserve">
<g id="图层_1">
</g>
<g id="图层_2">
	<g>
		<path fill="#6D6E6E" d="M34.5,13c0.3,0.5,0.5,1.1,0.5,1.9c0,0.8-0.2,1.5-0.6,2.1c-0.4,0.5-0.9,1-1.6,1.3c-0.6,0.3-1.3,0.5-2,0.7
			C30.2,19,29.6,19,29.1,19c0.2,0,0.4-0.1,0.6-0.1c0.4-0.1,0.8-0.4,1.1-0.7c0.3-0.3,0.5-0.8,0.7-1.4c0.1-0.6,0.2-1.3,0.2-2.2
			c0-0.3,0-0.6-0.1-1c0-0.4-0.2-0.9-0.4-1.3c-0.2-0.4-0.5-0.8-1-1.1c-0.2-0.1-0.4-0.2-0.6-0.3v-0.1l0.1,0c0.6,0,1.2,0.1,1.8,0.3
			c0.6,0.1,1.2,0.4,1.7,0.7C33.7,12,34.1,12.5,34.5,13 M30.5,4.3c0.2,0.3,0.4,0.7,0.5,1.2C31,6,31.1,6.5,31.1,7.2
			c0,0.4,0,0.8-0.1,1.2c-0.1,0.4-0.2,0.8-0.4,1.1c-0.2,0.3-0.5,0.6-0.9,0.8c0,0,0,0,0,0v0l0.1,0c0.3,0,0.8-0.1,1.3-0.3
			c0.5-0.1,1-0.4,1.5-0.6c0.5-0.3,0.9-0.6,1.2-1C34,8,34.1,7.5,34.1,6.9c0-0.7-0.2-1.2-0.5-1.7c-0.3-0.5-0.8-0.8-1.3-1.1
			c-0.5-0.3-1.1-0.5-1.7-0.6c-0.7-0.1-1.4-0.2-2.1-0.2c0.4,0,0.7,0.1,0.9,0.2C29.9,3.7,30.2,3.9,30.5,4.3 M26.9,3.4H24V19h2.9V3.4z
			 M0.7,29.6H0.5v0.2v15.6v0.2h0.2h2.9h0.2v-0.2V29.9v-0.2H3.6H0.7z M14.5,45.4L6.6,35.1l-0.2-0.2l-0.2,0.2l-2,2.1l-0.1,0.1l0.1,0.2
			l6.2,8.2l0.1,0.1h0.1h3.7h0.5L14.5,45.4z M56.3,46.1h0.2v-0.2V30.3v-0.2h-0.2h-2.9h-0.2v0.2v15.6v0.2h0.2H56.3z M46.5,46.1h0.2
			v-0.2V30.3v-0.2h-0.2h-2.9h-0.2v0.2v15.6v0.2h0.2H46.5z M7.9,73c0.5,0.1,1.7,0.3,2.9,0.2l0,0c-0.2-0.1-1.9-0.6-2.4-1.8
			c0,0,0,0,0,0c0,0,0,0,0,0c-0.2-0.5-0.4-1.1-0.5-1.8c-0.1-0.7-0.1-1.4-0.1-2V57.2V57H7.6H4.6H4.4v0.2v10.6c0,0.7,0.1,1.3,0.2,2
			c0.1,0.7,0.5,1.3,0.9,1.8c0.5,0.5,1.2,0.9,2.1,1.3C7.7,72.9,7.8,72.9,7.9,73 M53.4,57h-0.2v0.2v15.6V73h0.2h2.9h0.2v-0.2V57.2V57
			h-0.2H53.4z M43.7,57h-0.2v0.2v15.6V73h0.2h2.9h0.2v-0.2V57.2V57h-0.2H43.7z M64.5,3.1h-0.2v0.2V19v0.2h0.2h2.9h0.2V19V3.4V3.1
			h-0.2H64.5z M72.2,7.3c-0.1,0.4-0.2,0.8-0.4,1.2c-0.6,1.8-2.5,2.1-2.5,2.1s2.2,0.5,2.9,3.4l0.4,1.7v-1.8V7.3v-2L72.2,7.3z
			 M75.6,3.1h-3.9l0,0c0.1,0,2.1,0.9,2.9,2.2c0.8,1.2,1.2,2.9,1.2,2.9V6.9V3.4V3.1H75.6z M71.8,19.2h4.7h0.2V19v-4.5v-1.8
			c0,0-0.3,1.7-0.8,3C74.6,18.7,71.8,19.2,71.8,19.2 M87.7,45.1c0.2,0.1,0.4,0.2,0.6,0.3c0.6,0.3,1.4,0.6,2.2,0.6
			c-1.5-0.5-2.1-2.2-2.1-2.2l0,0c-0.2-0.5-0.4-1.1-0.5-1.9c-0.2-1-0.3-2.3-0.3-3.9c0-1.2,0.1-2.3,0.2-3.2c0.1-1,0.3-1.8,0.6-2.5
			c0,0,0-0.1,0-0.1c0.4-1.2,2-2.1,2-2.1c-1.3,0.2-2.5,0.9-2.9,1.1c-0.3,0.2-0.7,0.5-1,0.7c-0.8,0.7-1.5,1.6-2,2.7
			c-0.5,1-0.8,2.2-0.8,3.5c0,1.2,0.2,2.3,0.7,3.3c0.5,1,1.1,1.9,1.9,2.6c0.4,0.4,0.8,0.7,1.2,1C87.6,45,87.7,45.1,87.7,45.1
			 M100,34.6c-0.5-1-1.1-1.9-1.9-2.6c-0.4-0.3-0.7-0.6-1.2-0.9c-0.3-0.1-1.4-0.7-3-0.9c0,0,1.7,0.7,2.2,1.9c0,0,0.2,0.3,0.2,0.4
			c0.3,0.7,0.5,1.6,0.6,2.5c0.1,0.9,0.1,2,0.1,3c0,1.2,0,2.2-0.1,3.2c-0.1,1-0.3,1.8-0.6,2.6c-0.1,0.2-0.3,0.6-0.3,0.6
			c-0.5,0.9-1.7,1.5-1.9,1.6l0,0c0.2,0,1.1-0.1,2.3-0.6c0.7-0.4,1.4-0.9,2-1.5c0.8-0.8,1.4-1.7,1.9-2.7c0.5-1,0.7-2.1,0.7-3.2
			C100.7,36.8,100.5,35.6,100,34.6 M43.8,3.1h-0.2v0.2V19v0.2h0.2h2.9H47V19V3.4V3.1h-0.2H43.8z M49.3,10.1l-1.8,0.6l1.9-0.2
			c0,0,1.6-0.2,2-0.3c0.5-0.1,1-0.4,1.4-0.6c0.4-0.3,0.8-0.6,1.1-1.1c0.3-0.4,0.4-1,0.4-1.6c0-0.8-0.2-1.4-0.5-1.9
			c-0.4-0.5-0.8-0.9-1.4-1.2c-0.5-0.3-1.1-0.5-1.8-0.6c-0.7-0.1-1.4-0.2-2.1-0.2c0,0,1.7,0.3,2.1,2.1c0.1,0.7,0.2,1.5,0.2,2
			c0,0.4,0,0.8-0.1,1.2C50.4,9.7,49.3,10,49.3,10.1 M54.9,17.2c0,0-0.2-2.5-0.2-2.5c-0.1-0.8-0.1-1.3-0.4-1.8
			c-0.3-0.5-0.6-0.9-1-1.1c-0.4-0.3-0.9-0.5-1.5-0.6c-0.2,0-0.4-0.1-0.7-0.1c-0.5-0.1-1.2-0.1-1.7-0.1c0,0,1.4,0,1.7,2.1
			c0.1,1,0.3,3.4,0.3,3.8c0.1,0.5,0.2,0.9,0.4,1.3c0.2,0.4,0.6,0.7,1.1,1c0.5,0.3,1.1,0.4,2,0.4c0.4,0,0.8,0,1-0.1
			c0.1,0,0.3-0.1,0.4-0.1C55.1,19.5,55,17.8,54.9,17.2 M64.4,30h-0.2v0.2v15.6v0.2h0.2h2.9h0.2v-0.2V30.3V30h-0.2H64.4z M69.8,37
			L68,37.6l1.9-0.2c0,0,1.6-0.2,2-0.3c0.5-0.1,1-0.4,1.4-0.6c0.4-0.3,0.8-0.6,1.1-1.1c0.3-0.4,0.4-1,0.4-1.6c0-0.8-0.2-1.4-0.5-1.9
			c-0.4-0.5-0.8-0.9-1.4-1.2c-0.5-0.3-1.1-0.5-1.8-0.6C70.5,30,69.8,30,69,30c0,0,1.7,0.3,2.1,2.1c0.1,0.7,0.2,1.5,0.2,2
			c0,0.4,0,0.8-0.1,1.2C70.9,36.6,69.9,37,69.8,37 M75.5,44.1c0,0-0.2-2.5-0.2-2.5c-0.1-0.8-0.1-1.3-0.4-1.8c-0.3-0.5-0.6-0.9-1-1.1
			c-0.4-0.3-0.9-0.5-1.5-0.6c-0.2,0-0.4-0.1-0.7-0.1c-0.5-0.1-1.2-0.1-1.7-0.1c0,0,1.4,0,1.7,2.1c0.1,1,0.3,3.4,0.3,3.8
			c0.1,0.5,0.2,0.9,0.4,1.3c0.2,0.4,0.6,0.7,1.1,1c0.5,0.3,1.1,0.4,2,0.4c0.4,0,0.8,0,1-0.1c0.1,0,0.3-0.1,0.4-0.1
			C75.7,46.4,75.6,44.7,75.5,44.1 M27.6,45.7h3.4V30h-3.4V45.7z M32.4,30c0,0,1.5,0.3,2,0.8c0.3,0.3,0.6,0.6,0.9,1.1
			c0.2,0.5,0.4,1,0.6,1.7l0.3,1.4v-0.8v-0.8V30h0H32.4z M25.5,30.2c-0.4,0.1-0.8,0.3-1.1,0.6c-0.3,0.3-0.6,0.7-0.8,1.1
			c-0.3,0.5-0.4,1-0.6,1.7l-0.2,1.4v-0.8v-0.8V30h3.4h0.2C26.3,30,25.7,30.2,25.5,30.2 M23.2,32c0,0,0.1-0.1,0.1-0.1c0,0,0,0,0,0
			C23.3,31.8,23.3,31.9,23.2,32C23.3,31.9,23.3,32,23.2,32 M34.7,57.4c-0.2,0-0.5,0-0.7-0.1c0,0-0.9-0.2-1.8-0.3l0,0
			c0.1,0,0.8,0.6,1.4,1.2c0,0,0.5,0.6,0.5,0.6c0.8,0.9,1.7,2.8,1.7,2.8v-0.2v-4.2V57C35.8,57,35.6,57.4,34.7,57.4 M26.6,70.8
			c-0.1-0.1-0.1-0.2-0.1-0.3c-0.2-0.4-0.3-0.8-0.4-1.3c-0.2-0.9-0.3-2.1-0.3-3.4v-2c0-0.8,0.1-1.7,0.2-2.5c0.1-0.8,0.3-1.5,0.7-2.2
			c0,0,0.1-0.1,0.1-0.1c0.5-1.1,2.1-2,2.1-2c-1.2,0.2-2.4,0.8-2.8,1c-0.4,0.3-0.8,0.5-1.1,0.9c-0.8,0.7-1.5,1.6-2,2.7
			c-0.5,1-0.8,2.2-0.8,3.5c0,1.2,0.2,2.3,0.7,3.3c0.5,1,1.1,1.9,1.9,2.6c0.6,0.6,1.3,1,2.1,1.4c0.6,0.3,1.4,0.6,2.2,0.6
			C28.9,73,27.5,72.7,26.6,70.8 M36.6,67h-2.8h-0.2v0.2v1c0,0.7,0,1.3-0.1,1.9c-0.1,0.9-0.5,1.7-0.5,1.7c-0.4,0.9-1.6,1.3-1.6,1.3
			c0.8,0.1,1.6-0.1,1.6-0.1l0,0c0.3-0.1,0.5-0.2,0.7-0.3l1-0.5c0.3-0.1,0.6-0.2,1-0.2c0.9,0.1,1.2,0.5,1.2,0.5v-0.2v-5.1V67H36.6z
			 M89.6,2.9l-0.2-0.5l-0.2,0.5l-1.5,3.7l0,0.1l0,0.1l5.6,13l0.1,0.1h0.1h3.2H97l-0.1-0.3L89.6,2.9z"/>
		<rect x="3.1" y="9.7" fill="#E7372F" width="9.3" height="4"/>
		<g>
			<defs>
				<polygon id="SVGID_4_" points="6,91 6,94.6 2.4,94.6 2.4,98 6,98 6,101.6 9.4,101.6 9.4,98 13,98 13,94.6 9.4,94.6 9.4,91 				
					"/>
			</defs>
			<clipPath id="SVGID_1_">
				<use xlink:href="#SVGID_4_"  overflow="visible"/>
			</clipPath>
			
				<linearGradient id="SVGID_2_" gradientUnits="userSpaceOnUse" x1="32.7091" y1="-259.7124" x2="33.709" y2="-259.7124" gradientTransform="matrix(10.5761 0 0 -10.5761 -343.4933 -2650.4358)">
				<stop  offset="0" style="stop-color:#EC6C00"/>
				<stop  offset="1" style="stop-color:#E7372F"/>
			</linearGradient>
			<rect x="2.4" y="91" clip-path="url(#SVGID_1_)" fill="url(#SVGID_2_)" width="10.6" height="10.6"/>
		</g>
	</g>
</g>
</svg>
